<svg width="82" height="82" viewBox="0 0 82 82" fill="none" xmlns="http://www.w3.org/2000/svg">
<g clip-path="url(#clip0_630_1080)">
<path fill-rule="evenodd" clip-rule="evenodd" d="M44.3174 54.1761C43.6632 53.7488 42.8815 53.5004 42.0417 53.5004C39.7405 53.5004 37.875 55.3658 37.875 57.6671C37.875 59.9682 39.7405 61.8337 42.0417 61.8337C44.3345 61.8337 46.1948 59.9817 46.2082 57.692L46.4416 53.5004H48.0584L48.2918 57.6912C48.3048 59.9813 50.1652 61.8337 52.4583 61.8337C54.7595 61.8337 56.625 59.9682 56.625 57.6671C56.625 55.3658 54.7595 53.5004 52.4583 53.5004C51.6185 53.5004 50.8369 53.7488 50.1826 54.1761L48.2901 20.1777L47.25 20.2356L46.21 20.1777L44.3174 54.1761ZM47.9425 51.4171L47.25 38.9775L46.5576 51.4171H47.9425ZM48.2917 34.7503C48.2917 35.3256 47.8253 35.792 47.25 35.792C46.6747 35.792 46.2083 35.3256 46.2083 34.7503C46.2083 34.175 46.6747 33.7086 47.25 33.7086C47.8253 33.7086 48.2917 34.175 48.2917 34.7503ZM39.9583 57.6671C39.9583 56.5164 40.891 55.5837 42.0417 55.5837C43.1923 55.5837 44.125 56.5164 44.125 57.6671C44.125 58.8176 43.1923 59.7504 42.0417 59.7504C40.891 59.7504 39.9583 58.8176 39.9583 57.6671ZM52.4583 55.5837C51.3077 55.5837 50.375 56.5164 50.375 57.6671C50.375 58.8176 51.3077 59.7504 52.4583 59.7504C53.609 59.7504 54.5417 58.8176 54.5417 57.6671C54.5417 56.5164 53.609 55.5837 52.4583 55.5837Z" fill="#E9296A" stroke="#E9296A" stroke-width="0.00064"/>
<path d="M32.6669 30.5837V20.167C32.6669 20.167 29.0906 22.3128 28.5645 30.5803C28.4915 31.7287 29.433 32.667 30.5836 32.667C31.7342 32.667 32.6669 31.7343 32.6669 30.5837Z" fill="#E9296A" stroke="#E9296A" stroke-width="0.00064"/>
<path fill-rule="evenodd" clip-rule="evenodd" d="M29.542 35.2715C29.542 34.4086 30.2416 33.709 31.1045 33.709C31.9674 33.709 32.667 34.4086 32.667 35.2715V36.0974L29.542 39.2224V35.2715ZM29.542 40.6955V43.3891L32.667 40.2641V37.5705L29.542 40.6955ZM29.542 47.5558V44.8622L32.667 41.7372V44.4308L29.542 47.5558ZM29.542 49.0289V60.2715C29.542 61.1344 30.2416 61.834 31.1045 61.834C31.9674 61.834 32.667 61.1344 32.667 60.2715V45.9039L29.542 49.0289Z" fill="#E9296A" stroke="#E9296A" stroke-width="0.00064"/>
<line x1="19.6464" y1="61.6464" x2="61.6464" y2="19.6464" stroke="#E9296A"/>
</g>
<circle cx="41" cy="41" r="40.5" stroke="#E9296A" stroke-linecap="round" stroke-dasharray="8 8"/>
<defs>
<clipPath id="clip0_630_1080">
<rect width="50" height="50" fill="white" transform="translate(16 16)"/>
</clipPath>
</defs>
</svg>
