<svg width="82" height="82" viewBox="0 0 82 82" fill="none" xmlns="http://www.w3.org/2000/svg">
<path d="M26.0859 41.8438V37.3906C26.0859 33.4352 27.6572 29.6417 30.4542 26.8448C33.2511 24.0479 37.0445 22.4766 41 22.4766C44.9555 22.4766 48.7489 24.0479 51.5458 26.8448C54.3428 29.6417 55.9141 33.4352 55.9141 37.3906V41.8438" stroke="#E9296A" stroke-width="2.5" stroke-linecap="round"/>
<path d="M25.4219 41.8438H29.0937V52.2969H25.4219C24.8003 52.2969 24.2041 52.0499 23.7646 51.6104C23.3251 51.1709 23.0781 50.5747 23.0781 49.9531V44.1875C23.0781 43.5659 23.3251 42.9698 23.7646 42.5302C24.2041 42.0907 24.8003 41.8438 25.4219 41.8438Z" stroke="#E9296A" stroke-width="2.5" stroke-linecap="round"/>
<path d="M56.5781 52.2969H52.9063V41.8437H56.5781C57.1997 41.8437 57.7959 42.0907 58.2354 42.5302C58.6749 42.9698 58.9219 43.5659 58.9219 44.1875V49.9531C58.9219 50.5747 58.6749 51.1709 58.2354 51.6104C57.7959 52.0499 57.1997 52.2969 56.5781 52.2969Z" stroke="#E9296A" stroke-width="2.5" stroke-linecap="round"/>
<path d="M56.3906 52.5938V56.5C56.3906 57.3288 56.0614 58.1237 55.4753 58.7097C54.8893 59.2958 54.0944 59.625 53.2656 59.625H44.5625" stroke="#E9296A" stroke-width="2.5" stroke-linecap="round"/>
<path d="M42.9922 57.5625H39.7891C38.9261 57.5625 38.2266 58.2621 38.2266 59.125V59.9609C38.2266 60.8239 38.9261 61.5234 39.7891 61.5234H42.9922C43.8551 61.5234 44.5547 60.8239 44.5547 59.9609V59.125C44.5547 58.2621 43.8551 57.5625 42.9922 57.5625Z" stroke="#E9296A" stroke-width="2.5" stroke-linecap="round"/>
<circle cx="41" cy="41" r="40.5" stroke="#E9296A" stroke-linecap="round" stroke-dasharray="8 8"/>
</svg>
