<svg width="42" height="43" viewBox="0 0 42 43" fill="none" xmlns="http://www.w3.org/2000/svg">
<path d="M6.99979 37.25V32.875C6.99979 27.5592 11.309 23.25 16.6248 23.25H25.3748C30.6906 23.25 34.9998 27.5592 34.9998 32.875V37.25M13.9998 37.25V32M27.9998 37.25V32M19.2498 16.25H13.1248C11.675 16.25 10.4998 15.0748 10.4998 13.625V11.875C10.4998 9.54269 11.5137 7.4472 13.1248 6.00524M31.4998 14.5V11.875C31.4998 9.54271 30.4858 7.4472 28.8748 6.00524M34.9998 13.625V11M6.99979 13.625V11M27.9998 12.75C27.9998 16.616 24.8657 19.75 20.9998 19.75C17.1338 19.75 13.9998 16.616 13.9998 12.75C13.9998 8.884 17.1338 5.75 20.9998 5.75C24.8657 5.75 27.9998 8.884 27.9998 12.75Z" stroke="white" stroke-width="2.26286" stroke-linecap="round" stroke-linejoin="round"/>
</svg>
