<svg width="43" height="43" viewBox="0 0 43 43" fill="none" xmlns="http://www.w3.org/2000/svg">
<path d="M9.67847 35.8023H13.6333C15.4023 35.8023 17.1904 35.9866 18.912 36.3413C21.9575 36.9687 25.1639 37.0446 28.2405 36.5467C29.7576 36.301 31.249 35.9257 32.5991 35.274C33.8178 34.6858 35.3105 33.8566 36.3133 32.9279C37.3146 32.0006 38.3575 30.4828 39.0975 29.2963C39.7323 28.279 39.4253 27.0309 38.4213 26.2728C37.3062 25.4309 35.6514 25.4311 34.5365 26.2734L31.3739 28.6623C30.1482 29.5882 28.8095 30.4405 27.2145 30.6949C27.0227 30.7255 26.8218 30.7534 26.6122 30.7777M26.6122 30.7777C26.549 30.785 26.4851 30.792 26.4204 30.7987M26.6122 30.7777C26.8673 30.7231 27.1205 30.5656 27.3584 30.3582C28.484 29.3758 28.555 27.7201 27.5783 26.623C27.3519 26.3686 27.0866 26.1563 26.7919 25.9804C21.8964 23.0605 14.28 25.2844 9.67847 28.5477M26.6122 30.7777C26.5483 30.7913 26.4842 30.7987 26.4204 30.7987M26.4204 30.7987C25.5044 30.8927 24.4331 30.917 23.2441 30.8046" stroke="white" stroke-width="2" stroke-linecap="round"/>
<path d="M9.67847 27.2476C9.67847 25.7978 8.50321 24.6226 7.05347 24.6226C5.60372 24.6226 4.42847 25.7978 4.42847 27.2476V35.9976C4.42847 37.4473 5.60372 38.6226 7.05347 38.6226C8.50321 38.6226 9.67847 37.4473 9.67847 35.9976V27.2476Z" stroke="white" stroke-width="2"/>
<path d="M18.1062 20.0469C17.0448 20.0469 16.1408 19.758 15.3941 19.1804C14.6474 18.5981 14.0768 17.7551 13.6823 16.6514C13.2878 15.5431 13.0906 14.2047 13.0906 12.6361C13.0906 11.077 13.2878 9.74557 13.6823 8.64194C14.0815 7.53362 14.6544 6.68829 15.4011 6.10595C16.1525 5.51892 17.0542 5.2254 18.1062 5.2254C19.1582 5.2254 20.0575 5.51892 20.8042 6.10595C21.5556 6.68829 22.1286 7.53362 22.523 8.64194C22.9222 9.74557 23.1218 11.077 23.1218 12.6361C23.1218 14.2047 22.9246 15.5431 22.5301 16.6514C22.1356 17.7551 21.565 18.5981 20.8183 19.1804C20.0716 19.758 19.1676 20.0469 18.1062 20.0469ZM18.1062 18.4971C19.1582 18.4971 19.9753 17.9899 20.5577 16.9755C21.14 15.9611 21.4312 14.5146 21.4312 12.6361C21.4312 11.3869 21.2973 10.3232 21.0296 9.44501C20.7666 8.5668 20.3862 7.89758 19.8884 7.43735C19.3953 6.97711 18.8012 6.74699 18.1062 6.74699C17.0636 6.74699 16.2488 7.26124 15.6618 8.28972C15.0747 9.31351 14.7812 10.7623 14.7812 12.6361C14.7812 13.8853 14.9127 14.9467 15.1757 15.8202C15.4387 16.6937 15.8168 17.3582 16.3099 17.8138C16.8077 18.2693 17.4064 18.4971 18.1062 18.4971Z" fill="white"/>
<path d="M29.1684 17.4306V16.8872C29.1684 16.5115 29.2455 16.1676 29.3998 15.8557C29.5575 15.5404 29.7856 15.2888 30.0841 15.1009C30.3861 14.9097 30.7517 14.8141 31.1811 14.8141C31.6171 14.8141 31.9828 14.9097 32.278 15.1009C32.5732 15.2888 32.7962 15.5404 32.9472 15.8557C33.0982 16.1676 33.1736 16.5115 33.1736 16.8872V17.4306C33.1736 17.8063 33.0965 18.1518 32.9422 18.4671C32.7912 18.7791 32.5665 19.0307 32.2679 19.2219C31.9727 19.4098 31.6104 19.5037 31.1811 19.5037C30.745 19.5037 30.3777 19.4098 30.0791 19.2219C29.7806 19.0307 29.5541 18.7791 29.3998 18.4671C29.2455 18.1518 29.1684 17.8063 29.1684 17.4306ZM30.1948 16.8872V17.4306C30.1948 17.7426 30.2686 18.0227 30.4162 18.2709C30.5638 18.5158 30.8188 18.6382 31.1811 18.6382C31.5333 18.6382 31.7815 18.5158 31.9258 18.2709C32.0734 18.0227 32.1472 17.7426 32.1472 17.4306V16.8872C32.1472 16.5752 32.0767 16.2968 31.9358 16.0519C31.7949 15.8037 31.5433 15.6796 31.1811 15.6796C30.8288 15.6796 30.5756 15.8037 30.4213 16.0519C30.2703 16.2968 30.1948 16.5752 30.1948 16.8872ZM24.036 11.5334V10.99C24.036 10.6143 24.1132 10.2705 24.2675 9.9585C24.4251 9.64318 24.6532 9.39159 24.9518 9.20374C25.2537 9.01253 25.6193 8.91693 26.0487 8.91693C26.4848 8.91693 26.8504 9.01253 27.1456 9.20374C27.4408 9.39159 27.6639 9.64318 27.8148 9.9585C27.9658 10.2705 28.0413 10.6143 28.0413 10.99V11.5334C28.0413 11.9091 27.9641 12.2546 27.8098 12.57C27.6589 12.8819 27.4341 13.1335 27.1356 13.3247C26.8404 13.5126 26.4781 13.6065 26.0487 13.6065C25.6126 13.6065 25.2453 13.5126 24.9468 13.3247C24.6482 13.1335 24.4218 12.8819 24.2675 12.57C24.1132 12.2546 24.036 11.9091 24.036 11.5334ZM25.0625 10.99V11.5334C25.0625 11.8454 25.1363 12.1255 25.2839 12.3737C25.4315 12.6186 25.6864 12.741 26.0487 12.741C26.4009 12.741 26.6492 12.6186 26.7934 12.3737C26.941 12.1255 27.0148 11.8454 27.0148 11.5334V10.99C27.0148 10.678 26.9444 10.3996 26.8035 10.1547C26.6626 9.9065 26.411 9.78239 26.0487 9.78239C25.6965 9.78239 25.4432 9.9065 25.2889 10.1547C25.138 10.3996 25.0625 10.678 25.0625 10.99ZM24.4184 19.3628L31.5031 9.05782H32.6503L25.5657 19.3628H24.4184Z" fill="white"/>
</svg>
