<svg width="49" height="49" viewBox="0 0 49 49" fill="none" xmlns="http://www.w3.org/2000/svg">
<g clip-path="url(#clip0_5305_2601)">
<path d="M32.708 6.96884C32.8675 7.09038 33.0098 7.22573 33.1522 7.36672C33.3018 7.51436 33.4591 7.6499 33.62 7.78484C33.6624 7.74023 33.7048 7.69562 33.7485 7.64965C34.3717 7.00357 35.0901 6.46143 36.0225 6.4264C36.9704 6.41571 37.8135 6.61846 38.5146 7.29164C39.2058 7.99049 39.5322 8.83461 39.542 9.80984C39.5308 10.9194 38.9843 11.7447 38.222 12.5008C38.1489 12.5721 38.0758 12.6434 38.0026 12.7146C37.8744 12.8404 37.7525 12.968 37.6359 13.1046C37.3861 13.3957 37.1075 13.6601 36.8346 13.9293C36.5837 14.1771 36.3377 14.4254 36.1084 14.6937C35.8916 14.9368 35.6539 15.1612 35.4221 15.3898C35.1783 15.6304 34.94 15.8723 34.7173 16.1327C34.5224 16.3514 34.311 16.5547 34.103 16.7608C34.056 16.8076 34.0089 16.8545 33.9619 16.9013C33.8481 17.0146 33.7341 17.1278 33.62 17.2408C33.332 17.0021 33.0679 16.7439 32.804 16.4788C32.7626 16.4376 32.7211 16.3963 32.6784 16.3538C32.5002 16.1753 32.3245 15.9968 32.1605 15.805C31.934 15.5413 31.6833 15.3008 31.436 15.0568C31.1595 14.7841 30.8859 14.5125 30.6334 14.2169C30.4546 14.0157 30.2597 13.8297 30.068 13.6408C29.8139 13.3906 29.5661 13.1399 29.334 12.869C29.1872 12.7039 29.0265 12.5527 28.868 12.3988C28.3449 11.8821 27.9653 11.331 27.764 10.6168C27.7473 10.5591 27.7305 10.5014 27.7132 10.4419C27.5121 9.62215 27.6898 8.74418 28.1041 8.02484C28.5724 7.29098 29.2634 6.69711 30.1224 6.48453C31.0237 6.29321 31.938 6.47356 32.708 6.96884ZM29.828 7.11284C29.7904 7.12967 29.7528 7.1465 29.714 7.16384C29.4047 7.31849 29.1613 7.54416 28.916 7.78484C28.8888 7.81089 28.8616 7.83694 28.8335 7.86378C28.3308 8.39185 28.1213 9.15858 28.1245 9.86947C28.154 10.6775 28.5324 11.3787 29.1155 11.9241C29.2181 12.0238 29.3096 12.1218 29.402 12.2301C29.6336 12.4984 29.8879 12.7441 30.14 12.9928C30.416 13.2651 30.6891 13.5362 30.9411 13.8312C31.1281 14.0412 31.3319 14.2355 31.532 14.4328C32.0198 14.9137 32.0198 14.9137 32.2016 15.1264C32.4244 15.3866 32.6713 15.6235 32.915 15.8638C33.01 15.9575 33.1048 16.0513 33.1995 16.1453C33.2411 16.1863 33.2827 16.2274 33.3255 16.2696C33.428 16.3768 33.428 16.3768 33.524 16.5208C33.7342 16.5008 33.8322 16.3619 33.962 16.2118C34.2457 15.8937 34.5446 15.5931 34.8485 15.2942C35.0101 15.1344 35.1678 14.9742 35.3156 14.8013C35.5658 14.5103 35.8444 14.2457 36.1175 13.9764C36.4503 13.6497 36.4503 13.6497 36.764 13.3048C37.0107 13.0161 37.2873 12.7549 37.5575 12.4884C37.8397 12.2095 38.1179 11.9301 38.372 11.6248C38.4038 11.5867 38.4355 11.5486 38.4682 11.5093C38.9702 10.835 39.1244 10.0261 39.0236 9.20178C38.8995 8.57674 38.581 8.08357 38.132 7.64084C38.1009 7.60922 38.0698 7.5776 38.0377 7.54503C37.7947 7.31398 37.531 7.18491 37.22 7.06484C37.1655 7.04173 37.1655 7.04173 37.11 7.01815C36.455 6.77578 35.7407 6.90587 35.1183 7.16947C34.6098 7.41677 34.1875 7.8474 33.8343 8.28303C33.7549 8.3709 33.6685 8.43657 33.572 8.50484C33.5009 8.43499 33.4299 8.36495 33.359 8.29484C33.3195 8.25586 33.2799 8.21688 33.2392 8.17672C33.14 8.07284 33.14 8.07284 33.092 7.97684C33.0603 7.97684 33.0287 7.97684 32.996 7.97684C32.9839 7.94893 32.9718 7.92103 32.9593 7.89228C32.7229 7.46374 32.2253 7.25179 31.796 7.06484C31.7572 7.04739 31.7183 7.02994 31.6783 7.01197C31.106 6.79788 30.3728 6.86039 29.828 7.11284Z" fill="white"/>
<path d="M28.5938 26.6616L27.5479 26.6646C26.7875 26.667 26.027 26.6707 25.2666 26.6743C24.8055 26.6765 24.3441 26.6779 23.8828 26.6792C23.4812 26.6803 23.0793 26.6819 22.6777 26.6841H22.6768C22.4639 26.6852 22.2503 26.6867 22.0371 26.687C21.8377 26.6873 21.6381 26.6875 21.4385 26.689H21.4375C21.3634 26.6894 21.289 26.69 21.2148 26.6899C20.6033 26.6895 20.2123 26.7664 19.8135 27.1274C19.5811 27.4293 19.4908 27.748 19.5195 28.1353C19.5737 28.4895 19.7311 28.8058 19.9795 29.0024L20.0918 29.0747L20.0947 29.0767C20.1305 29.1 20.1666 29.1232 20.2031 29.147C20.437 29.2631 20.6775 29.2857 20.9814 29.2896H21.3145C21.3902 29.29 21.4662 29.291 21.542 29.2915C21.746 29.2928 21.9507 29.2938 22.1553 29.2944C22.3699 29.2952 22.5849 29.2961 22.7988 29.2974C23.2037 29.2996 23.6087 29.3016 24.0137 29.3032C24.4754 29.3051 24.937 29.3076 25.3984 29.3101C26.3472 29.315 27.2962 29.3188 28.2451 29.3228L28.5938 29.3237V31.7983H6.77441V28.7476L7.12305 28.7466C7.40923 28.7457 7.69542 28.7446 7.98926 28.7437L8.36426 28.3696C8.58986 28.1439 8.59477 28.1377 8.68066 28.0532C8.97208 27.7397 9.00899 27.362 9.00488 26.8101C9.00403 26.6918 9.00519 26.5739 9.00586 26.4575C9.00706 26.2129 9.00634 25.9679 9.00586 25.7222C9.0053 25.4356 9.00518 25.1482 9.00684 24.8608C9.00716 24.7494 9.0067 24.6376 9.00586 24.5239V24.52L9.00684 24.3091C9.00669 24.2492 9.00699 24.1892 9.00684 24.1274L9.00586 24.1021L9.00977 24.0776C9.06398 23.6968 9.29185 23.4039 9.5498 23.2017L9.58105 23.1772L9.61719 23.1597C9.92103 23.0172 10.2566 23.0294 10.5342 23.1011L10.6494 23.1353L10.6846 23.147L10.7158 23.1655C10.9657 23.3136 11.119 23.5376 11.2236 23.7407C11.3216 23.9309 11.4059 24.1677 11.4648 24.3071L11.5654 24.5337C11.6659 24.7455 11.7671 24.9154 11.8867 25.0581C12.0398 25.2406 12.2354 25.3911 12.5273 25.5171C12.7859 25.6103 13.0619 25.6133 13.3691 25.563C13.6901 25.5104 13.9975 25.4105 14.3516 25.3169H14.3525C14.5507 25.2654 14.7494 25.2146 14.9473 25.1636L15.0947 25.1245H15.0957C15.474 25.0269 15.8527 24.9385 16.2305 24.854C16.5687 24.7782 16.9054 24.6969 17.2422 24.6108C17.3789 24.5759 17.5159 24.541 17.6523 24.5063C17.994 24.4195 18.336 24.3327 18.6777 24.2456C20.759 23.715 21.8131 23.4462 22.5303 23.2993C23.2619 23.1495 23.6522 23.1247 24.3955 23.0776L24.4902 23.0718H24.4912C25.2749 23.0224 26.0544 23.0251 26.8252 23.0298L26.8262 23.0288C27.5285 23.0318 27.5289 23.0316 28.2451 23.0347L28.5938 23.0366V26.6616Z" stroke="white" stroke-width="0.7"/>
<path d="M42.2256 28.8911V31.1948L42.0195 31.2876C41.278 31.6222 40.5339 31.954 39.7852 32.2769C39.7491 32.2924 39.7129 32.3087 39.6758 32.3247C39.5238 32.3902 39.3717 32.4555 39.2197 32.521C38.7568 32.7206 38.2938 32.9214 37.8311 33.1226C37.7363 33.1638 37.6417 33.2054 37.5469 33.2466C37.4128 33.3048 37.2786 33.3631 37.1445 33.4214C37.1064 33.4379 37.0676 33.4532 37.0283 33.4702L37.0293 33.4712C36.9908 33.4879 36.9518 33.5047 36.9121 33.522L36.9082 33.5239C36.8717 33.5393 36.8344 33.555 36.7969 33.5708L36.4883 33.7251C35.7834 34.0943 35.1457 34.1074 34.4492 34.1001L34.4502 34.1011L34.0957 34.1021C33.8388 34.1027 33.5819 34.1017 33.3252 34.1001C32.9459 34.0978 32.5659 34.0978 32.1855 34.0981C31.5446 34.0986 30.9034 34.0975 30.2627 34.0952C29.6296 34.0929 28.9963 34.0917 28.3633 34.0913C28.3051 34.0913 28.3036 34.0913 28.2441 34.0913C28.0437 34.0912 27.843 34.0904 27.6426 34.0903C26.2245 34.0895 24.8066 34.0871 23.3887 34.0835C22.0118 34.08 20.6346 34.0773 19.2578 34.0757C19.1941 34.0756 19.1939 34.0758 19.1289 34.0757C18.7023 34.0752 18.2753 34.0742 17.8486 34.0737C16.9798 34.0728 16.111 34.072 15.2422 34.0708C15.2022 34.0707 15.1623 34.0709 15.1211 34.0708C12.4552 34.0673 9.78875 34.0616 7.12305 34.0552L6.77441 34.0542V31.5776L7.12598 31.5786C7.33656 31.5795 7.3369 31.5797 7.55176 31.5806C10.0212 31.5909 12.4909 31.6003 14.96 31.604C14.9986 31.6041 15.0374 31.6039 15.0771 31.604C15.9204 31.6053 16.7641 31.6061 17.6074 31.6069C18.0211 31.6074 18.4349 31.6074 18.8486 31.6079C18.8898 31.608 18.9312 31.6088 18.9736 31.6089C20.3032 31.6104 21.6326 31.6145 22.9619 31.6206C24.3297 31.6268 25.6977 31.6299 27.0654 31.6294H27.7637L29.5967 31.6372C30.2116 31.6415 30.8264 31.6425 31.4414 31.6401C31.775 31.6389 32.1099 31.6387 32.4453 31.6431L33.0449 31.6392C34.4083 31.601 35.5474 31.3566 36.8408 30.7573V30.7563C37.1599 30.609 37.484 30.4867 37.7998 30.3696L38.0859 30.2593H38.0869C38.1791 30.2239 38.2711 30.1882 38.3633 30.1528C38.4136 30.1335 38.4628 30.1151 38.5146 30.0952C38.7725 29.9962 39.0312 29.8963 39.2891 29.7974C39.5404 29.7009 39.7916 29.6042 40.043 29.5073C40.2325 29.4344 40.4228 29.3622 40.6123 29.2896C40.7004 29.2557 40.7889 29.221 40.877 29.187C40.9974 29.1405 41.1181 29.0953 41.2383 29.0493V29.0483C41.2896 29.0284 41.2931 29.0277 41.3457 29.0073L41.3477 29.0063C41.4929 28.9511 41.6539 28.8911 41.876 28.8911H42.2256Z" stroke="white" stroke-width="0.7"/>
<path d="M31.5564 23.0352C32.3879 23.0352 33.1408 23.1931 33.8093 23.7617L33.9421 23.8809L33.9519 23.8896L33.9509 23.8906C34.5246 24.4798 34.8438 25.1735 34.8533 26.0146L34.8552 26.1348V26.1357C34.8561 26.2197 34.8568 26.3038 34.8572 26.3877L34.864 26.7588V26.7627C34.8719 27.3885 34.7775 27.9279 34.3015 28.4648L34.2888 28.4795L34.2751 28.4922C33.8667 28.8617 33.3139 28.9498 32.9246 29.0225L32.9255 29.0234C32.6995 29.068 32.4745 29.116 32.2498 29.167L31.575 29.3281C31.5163 29.3428 31.4576 29.358 31.3972 29.373L31.3894 29.375C31.251 29.4065 31.1978 29.4182 31.1472 29.4336C31.0966 29.449 31.0459 29.4686 30.9138 29.5195L30.8591 29.54L30.8015 29.543C30.6652 29.5481 30.5302 29.549 30.3953 29.5488L30.3962 29.5498H29.8542L29.8552 29.5508C29.7562 29.551 29.6564 29.5505 29.5574 29.5508C29.2874 29.5514 29.0175 29.5525 28.7478 29.5527C28.5793 29.5529 28.4105 29.5525 28.2419 29.5527C27.7146 29.5534 27.1873 29.5545 26.6599 29.5547C26.0513 29.5549 25.4424 29.5552 24.8337 29.5566C24.363 29.5577 23.8923 29.5585 23.4216 29.5586C23.1409 29.5586 22.8603 29.5587 22.5798 29.5596C22.3149 29.5604 22.0497 29.56 21.7849 29.5596L21.4958 29.5605C21.3633 29.5612 21.2307 29.561 21.0994 29.5605L20.9841 29.5615H20.9773C20.4937 29.5573 20.06 29.4197 19.6853 29.0615L19.6736 29.0508L19.6619 29.0381C19.3303 28.6541 19.27 28.2537 19.2869 27.8252L19.2888 27.7998C19.3366 27.3777 19.5522 27.0237 19.8582 26.7656L19.8787 26.748L19.9001 26.7344C20.2054 26.5466 20.4874 26.4632 20.8533 26.4678L20.9656 26.4668H20.9666C21.0912 26.4664 21.2155 26.4668 21.3376 26.4678C21.426 26.4677 21.5149 26.468 21.6033 26.4678C21.7946 26.4675 21.9863 26.468 22.1775 26.4688C22.4788 26.47 22.7804 26.4703 23.0828 26.4697L25.3396 26.4707C25.9231 26.4717 26.5065 26.4719 27.0896 26.4707L27.991 26.4717H28.8142C29.4123 26.4768 29.9545 26.3815 30.5505 26.2158L30.5515 26.2148C30.5927 26.2035 30.634 26.1924 30.6765 26.1807L31.2058 26.0322V23.0352H31.5564Z" stroke="white" stroke-width="0.7"/>
<path d="M42.2259 24.9072V28.8906L42.0208 28.9834C41.6758 29.1402 41.3304 29.2902 40.9681 29.4258L40.9691 29.4268C40.9224 29.4444 40.8755 29.4623 40.8275 29.4805C40.7272 29.5183 40.6269 29.556 40.5267 29.5938C40.2579 29.6949 39.9892 29.7965 39.72 29.8984L39.554 29.9609C39.1218 30.1246 38.6901 30.29 38.2591 30.457C38.0846 30.5246 37.9095 30.5905 37.7347 30.6562C37.3486 30.8023 36.9791 30.9481 36.6204 31.1211V31.1221C34.9009 31.9498 33.303 31.8806 31.5394 31.7988L31.2064 31.7832V29.2646L31.3997 29.168C31.5581 29.0888 31.6789 29.0345 31.8724 28.9941C31.9094 28.9862 31.9465 28.9789 31.9847 28.9707L31.9866 28.9697C32.0248 28.9618 32.0635 28.9544 32.1028 28.9463C32.2471 28.9164 32.3171 28.9021 32.386 28.8848L32.6644 28.8057C32.8489 28.747 33.018 28.7287 33.1712 28.7139L33.3314 28.6855C33.689 28.6071 33.9999 28.4327 34.2503 28.1641C34.27 28.1284 34.2897 28.0923 34.3099 28.0557L34.3235 28.0293L34.3421 28.0059C34.3796 27.9588 34.449 27.8653 34.5462 27.8047C34.6456 27.7429 34.7605 27.7244 34.8167 27.7129L34.8489 27.7061L34.8821 27.7051C34.9476 27.7041 35.0128 27.704 35.0775 27.7051C35.1499 27.7033 35.2227 27.7017 35.2952 27.6992H35.2962C35.3332 27.6981 35.3705 27.6974 35.4085 27.6963L35.6595 27.6807C36.2565 27.6318 36.9243 27.4972 37.555 27.2764C38.2699 27.026 38.9115 26.6723 39.3519 26.2285C39.3722 26.1995 39.3935 26.1705 39.4144 26.1406L39.4261 26.124L39.4398 26.1084C39.6255 25.9002 39.8289 25.801 40.015 25.7148C40.0616 25.6925 40.0632 25.6912 40.1136 25.667C40.2229 25.6147 40.3327 25.5633 40.4407 25.5127C40.5116 25.4789 40.5828 25.445 40.6536 25.4111L41.5364 24.9951C41.6046 24.9652 41.6647 24.9406 41.72 24.9258C41.7925 24.9064 41.8462 24.9072 41.8763 24.9072H42.2259Z" stroke="white" stroke-width="0.7"/>
<path d="M34.7755 21.3813C35.6733 20.6419 36.8368 20.4576 37.8829 20.9663L38.0909 21.0767L38.1036 21.0845L38.1154 21.0933C38.5017 21.3655 38.8099 21.7599 38.9698 22.2144L39.0294 22.4126L39.0333 22.4272L39.0353 22.4429C39.1449 23.157 38.9809 23.8247 38.5597 24.4067L38.5558 24.4106C38.0902 25.0315 37.421 25.4364 36.6495 25.5552L36.632 25.5581L36.6144 25.5591C35.87 25.5983 35.2234 25.533 34.5548 25.0034L34.5411 24.9927L34.5284 24.981C34.0407 24.5087 33.8434 23.9683 33.8224 23.3218L33.8214 23.3101L33.8224 23.2993C33.8476 22.5037 34.2337 21.8961 34.757 21.3979L34.7667 21.3892L34.7755 21.3813Z" stroke="white" stroke-width="0.7"/>
<path d="M39.1935 23.1938C39.2633 23.2149 39.3578 23.2439 39.4474 23.2964C39.5225 23.3404 39.5843 23.3944 39.6388 23.4585L39.6915 23.5259L39.7101 23.5522L39.7238 23.5806C39.7516 23.6402 39.7525 23.642 39.7794 23.6997L39.838 23.8228L39.8448 23.8364L39.8507 23.8521C40.1115 24.5462 40.0125 25.4218 39.7423 26.0513L39.7374 26.064L39.7306 26.0757C39.3772 26.7487 38.7082 27.0382 38.1691 27.2593C38.1402 27.2712 38.1118 27.2841 38.0822 27.2964L38.0802 27.2974C37.0598 27.7145 36.0727 27.9106 34.964 27.9106H34.6144V24.9907L35.0558 25.1108C35.4638 25.2221 35.5735 25.2509 35.67 25.2925C35.8218 25.2995 35.9753 25.3002 36.1466 25.3003H36.3019C37.0119 25.3016 37.6142 25.0231 38.1554 24.521C38.4466 24.2172 38.6351 23.8564 38.755 23.4331L38.8527 23.0903L39.1935 23.1938Z" stroke="white" stroke-width="0.7"/>
<path d="M9.82599 33.8354V39.3501L9.41876 39.2827C9.37353 39.2752 9.36571 39.2734 9.3338 39.2681C9.31646 39.2652 9.33461 39.2679 9.31818 39.2651C9.31752 39.265 9.30603 39.2636 9.30353 39.2632C9.29756 39.2622 9.30163 39.2632 9.29572 39.2622C9.29439 39.262 9.28969 39.2604 9.28888 39.2603L9.26154 39.2563C9.25655 39.2555 9.25315 39.2543 9.24786 39.2534C9.24497 39.2529 9.23652 39.252 9.23322 39.2515C9.21605 39.2486 9.23428 39.2515 9.21661 39.2485C9.18334 39.243 9.18286 39.2421 9.15118 39.2368C8.91931 39.2164 8.74472 39.224 8.58673 39.2583C8.42862 39.2926 8.26864 39.3576 8.07306 39.4761L8.06134 39.4839L8.04865 39.4897L7.91388 39.5571C7.89524 39.5664 7.88403 39.5725 7.85626 39.5864L7.3504 39.8394V33.8354H9.82599Z" stroke="white" stroke-width="0.7"/>
<path d="M41.65 34.4111V39.3496L41.2427 39.2822C41.2128 39.2772 41.2588 39.2852 41.2291 39.2803C41.2156 39.278 41.231 39.2796 41.2173 39.2773C41.2081 39.2758 41.2147 39.2779 41.2056 39.2764C41.2037 39.2761 41.1962 39.2746 41.1949 39.2744C41.1766 39.2714 41.1931 39.2735 41.1754 39.2705C41.1473 39.2658 41.1853 39.2722 41.1578 39.2676C41.1261 39.2623 41.1569 39.2676 41.1275 39.2627C41.1187 39.2612 41.1074 39.2592 41.0992 39.2578L40.9761 39.2373C40.6918 39.2175 40.4959 39.2348 40.3228 39.2861C40.1461 39.3386 39.9676 39.4337 39.7271 39.6055L39.1744 40.001V34.4111H41.65Z" stroke="white" stroke-width="0.7"/>
<path d="M21.2025 33.8833V37.4634H18.1556L18.1068 37.1704C18.0667 36.9298 18.0415 36.6982 18.0286 36.4565L18.0228 36.3442C18.0184 36.2656 18.0142 36.1865 18.0101 36.1079C18.0039 35.9917 17.9972 35.8752 17.9905 35.7583V35.7573C17.9864 35.6807 17.982 35.6035 17.9778 35.5269L17.972 35.4253V35.4224C17.9514 35.0192 17.9583 34.6187 17.9583 34.2329V33.8833H21.2025Z" stroke="white" stroke-width="0.7"/>
<path d="M24.2421 33.8833L24.2255 34.2485C24.1947 34.927 24.1632 35.6064 24.1269 36.2856C24.112 36.5647 24.0963 36.8438 24.081 37.1313L24.0634 37.4634H20.9824V33.8833H24.2421Z" stroke="white" stroke-width="0.7"/>
<path d="M31.4261 23.0352V26.2529L31.1576 26.3174C30.7616 26.4124 30.3653 26.5076 29.9574 26.6055C29.9347 26.6112 29.9198 26.6144 29.9047 26.6182C29.8795 26.6245 29.9081 26.618 29.8842 26.624H29.8802L29.8793 26.625C29.8718 26.6269 29.8819 26.6241 29.8744 26.626L29.8705 26.627L29.8607 26.6289L29.8597 26.6299H29.8588C29.8574 26.6302 29.8581 26.6305 29.8568 26.6309H29.8529V26.6318H29.8519L29.8373 26.6348C29.8166 26.6399 29.8473 26.6325 29.8265 26.6377C29.7984 26.6447 29.8062 26.643 29.7689 26.6523L29.7269 26.6631H28.3744V23.0352H31.4261Z" stroke="white" stroke-width="0.7"/>
<path d="M39.3936 32.3955V37.4629H39.044C38.9437 37.4629 38.8411 37.4646 38.7618 37.4502C38.6332 37.4268 38.5553 37.3639 38.5176 37.3359L38.4835 37.3105L38.4561 37.2783C38.4348 37.2525 38.4136 37.2267 38.3917 37.2002L38.3155 37.1104L38.3106 37.1035C38.2858 37.0728 38.2609 37.0423 38.2354 37.0107L38.1524 36.9111L38.1514 36.9102C38.0693 36.8115 37.9882 36.7126 37.9083 36.6143V36.6133C37.8517 36.5446 37.8507 36.5439 37.7921 36.4727L37.7911 36.4717C37.7219 36.3874 37.6536 36.3025 37.585 36.2178V36.2188C37.4651 36.0721 37.3416 35.927 37.2169 35.7803V35.7793C37.018 35.5453 36.8229 35.309 36.6299 35.0713V35.0723L36.3799 34.7744L36.3067 34.6895C36.2599 34.6351 36.2131 34.5804 36.1661 34.5264L36.1641 34.5244C36.0565 34.399 35.9516 34.2706 35.8799 34.0557L35.7803 33.7559L36.0674 33.626C36.751 33.3168 37.438 33.0088 38.1299 32.7109C38.2176 32.6732 38.3057 32.6347 38.3936 32.5967H38.3946C38.4478 32.5739 38.5009 32.5508 38.5557 32.5273C38.6024 32.5073 38.6492 32.4875 38.6973 32.4668L38.71 32.4609H38.711C38.7548 32.4441 38.8146 32.4207 38.8751 32.4082C38.9434 32.3941 39.007 32.3955 39.044 32.3955H39.3936Z" stroke="white" stroke-width="0.7"/>
<path d="M21.2017 39.5474V42.0229H17.5347L17.688 41.562C17.8035 41.2155 17.9239 40.9308 18.0933 40.6128C18.2138 40.3525 18.3026 40.0812 18.4106 39.7788L18.4937 39.5474H21.2017Z" stroke="white" stroke-width="0.7"/>
<path d="M40.3926 38.9912C40.6786 38.9255 40.9742 38.9523 41.2783 39.0791L41.291 39.084L41.3027 39.0898C41.661 39.2716 41.9528 39.5166 42.1348 39.8965L42.2061 40.0674L42.2158 40.0967L42.2217 40.127C42.3033 40.6152 42.2088 41.0379 41.9219 41.4434L41.9102 41.459L41.8975 41.4736C41.6355 41.7679 41.3064 41.9826 40.874 42.0371L40.8604 42.0391L40.8467 42.04C40.6502 42.0495 40.4602 42.0389 40.2715 41.9863C40.08 41.9329 39.9079 41.8408 39.7393 41.708L39.7285 41.6992L39.7188 41.6904C39.3835 41.3809 39.1765 41.0134 39.1504 40.5244L39.1494 40.5098L39.1504 40.4941C39.1649 40.0697 39.3072 39.7098 39.623 39.4014L39.6348 39.3896L39.6475 39.3799C39.8676 39.202 40.1134 39.0554 40.3926 38.9912Z" stroke="white" stroke-width="0.7"/>
<path d="M8.75983 38.9683C9.00139 38.9543 9.23605 39.0039 9.46393 39.0972L9.68951 39.2046L9.70612 39.2134L9.72272 39.2241C10.1114 39.4915 10.3266 39.8957 10.4171 40.3149L10.4239 40.3442L10.4249 40.3745C10.4412 40.7812 10.2999 41.1798 10.0626 41.4897L10.0518 41.5044L10.0391 41.5181C9.71574 41.8589 9.32524 42.0316 8.85944 42.0493L8.84479 42.0503L8.83014 42.0493C8.6283 42.04 8.44687 42.0044 8.2735 41.9292C8.1017 41.8546 7.95447 41.7487 7.81256 41.6226L7.79596 41.6079L7.78131 41.5913C7.61688 41.4034 7.49583 41.2159 7.42194 40.9985C7.34876 40.7831 7.32966 40.5618 7.33502 40.3198L7.336 40.3052L7.33698 40.2915C7.38057 39.8672 7.57491 39.6052 7.836 39.3618L7.84576 39.353L7.85455 39.3452C8.13404 39.1194 8.43391 38.9871 8.75983 38.9683Z" stroke="white" stroke-width="0.7"/>
<path d="M23.6962 39.5474L23.7763 39.7866C23.8524 40.0149 23.9276 40.2434 24.0058 40.478C24.0449 40.5623 24.0835 40.6444 24.123 40.7251L24.248 40.9722L24.249 40.9741C24.2916 41.0556 24.3336 41.1375 24.3759 41.2192H24.3769L24.4335 41.3257L24.4413 41.3433C24.4552 41.3735 24.4859 41.4351 24.5009 41.5034C24.5159 41.5718 24.5136 41.6403 24.5136 41.6733V42.0229H20.9824V39.5474H23.6962Z" stroke="white" stroke-width="0.7"/>
<path d="M12.9462 33.8354V34.6313H12.7099C12.6094 34.7841 12.4931 34.9117 12.4003 35.0171C12.3479 35.0774 12.2964 35.1384 12.2441 35.1987C12.2182 35.2285 12.1926 35.2588 12.166 35.2896L12.165 35.2886C12.0693 35.4 11.9762 35.5148 11.8808 35.6323C11.722 35.8279 11.5606 36.0206 11.3984 36.2114C11.2318 36.4075 11.0675 36.6046 10.9052 36.8032L10.9042 36.8042C10.8701 36.8458 10.8349 36.8864 10.7997 36.9292L10.8007 36.9302C10.7468 36.997 10.6948 37.0637 10.6454 37.1304L10.6445 37.1323C10.5719 37.2288 10.5604 37.2406 10.4472 37.3569L10.3437 37.4634H9.60638V33.8354H12.9462Z" stroke="white" stroke-width="0.7"/>
<path d="M31.4261 29.2754V31.7988H28.3744V29.3311L28.7162 29.3232C29.0124 29.3164 29.3086 29.3095 29.6049 29.3027C29.7056 29.3004 29.8068 29.2982 29.9076 29.2959C30.0525 29.2925 30.1973 29.2885 30.3422 29.2852C30.3871 29.2841 30.4326 29.2833 30.4789 29.2822C30.5211 29.2813 30.5633 29.2803 30.6068 29.2793L30.7191 29.2773H30.7211C30.8408 29.2753 30.9602 29.2754 31.0756 29.2754H31.4261Z" stroke="white" stroke-width="0.7"/>
<path d="M21.2021 37.2915V39.7671H18.2139L18.1982 39.4331C18.1713 38.8396 18.1504 38.2412 18.1504 37.6411V37.2915H21.2021Z" stroke="white" stroke-width="0.7"/>
<path d="M23.9863 37.2915V37.6411C23.9863 38.2405 23.9672 38.8393 23.9374 39.4351L23.9208 39.7671H20.9824V37.2915H23.9863Z" stroke="white" stroke-width="0.7"/>
<path d="M41.65 31.5791V34.6309H39.1744V32.2812L39.3765 32.1875C39.5803 32.0926 39.7838 31.9972 39.9937 31.8994C40.0562 31.8697 40.1188 31.8402 40.1832 31.8096L40.189 31.8066C40.2392 31.7838 40.2897 31.7618 40.3414 31.7383C40.3932 31.7142 40.4452 31.6889 40.4986 31.6641L40.5211 31.6543L40.5445 31.6465C40.6334 31.6194 40.7078 31.5968 40.8297 31.5869C40.8794 31.5829 40.9393 31.58 41.0152 31.5791H41.65Z" stroke="white" stroke-width="0.7"/>
<path d="M33.623 10.2868C33.764 10.3288 33.764 10.3288 33.86 10.4728C33.8709 10.5772 33.8709 10.5772 33.8694 10.6968C33.8691 10.7397 33.8688 10.7825 33.8684 10.8267C33.8676 10.8712 33.8668 10.9158 33.866 10.9618C33.8656 11.0069 33.8651 11.052 33.8647 11.0985C33.8636 11.21 33.862 11.3214 33.86 11.4328C33.89 11.4323 33.9201 11.4318 33.951 11.4312C34.0867 11.4292 34.2223 11.428 34.358 11.4268C34.4053 11.426 34.4525 11.4252 34.5012 11.4243C34.569 11.4239 34.569 11.4239 34.6381 11.4234C34.6798 11.4229 34.7216 11.4224 34.7646 11.4219C34.868 11.4328 34.868 11.4328 34.964 11.5288C34.976 11.6728 34.976 11.6728 34.964 11.8168C34.868 11.9128 34.868 11.9128 34.7646 11.9237C34.7228 11.9232 34.6811 11.9227 34.6381 11.9221C34.593 11.9218 34.5478 11.9215 34.5012 11.9212C34.4303 11.92 34.4303 11.92 34.358 11.9188C34.3104 11.9183 34.2627 11.9179 34.2136 11.9174C34.0957 11.9163 33.9779 11.9147 33.86 11.9128C33.861 11.9408 33.862 11.9689 33.863 11.9978C33.867 12.1255 33.8695 12.2531 33.872 12.3808C33.8744 12.447 33.8744 12.447 33.8769 12.5146C33.8816 12.8419 33.8816 12.8419 33.7711 12.9997C33.668 13.0648 33.668 13.0648 33.542 13.0618C33.428 13.0168 33.428 13.0168 33.332 12.8728C33.3211 12.7683 33.3211 12.7683 33.3226 12.6487C33.3229 12.6058 33.3232 12.563 33.3236 12.5189C33.3244 12.4743 33.3252 12.4297 33.326 12.3838C33.3264 12.3386 33.3269 12.2935 33.3273 12.247C33.3284 12.1356 33.33 12.0242 33.332 11.9128C33.2869 11.9135 33.2869 11.9135 33.241 11.9143C33.1053 11.9163 32.9697 11.9175 32.834 11.9188C32.7867 11.9196 32.7394 11.9204 32.6907 11.9212C32.6456 11.9215 32.6004 11.9218 32.5539 11.9221C32.4913 11.9229 32.4913 11.9229 32.4274 11.9237C32.324 11.9128 32.324 11.9128 32.228 11.8168C32.216 11.6728 32.216 11.6728 32.228 11.5288C32.324 11.4328 32.324 11.4328 32.4274 11.4219C32.4692 11.4224 32.5109 11.4229 32.5539 11.4234C32.599 11.4237 32.6442 11.424 32.6907 11.4243C32.738 11.4251 32.7853 11.4259 32.834 11.4268C32.8816 11.4272 32.9293 11.4276 32.9784 11.4281C33.0963 11.4292 33.2141 11.4308 33.332 11.4328C33.3312 11.403 33.3305 11.3732 33.3297 11.3425C33.3267 11.2076 33.3248 11.0727 33.323 10.9378C33.3218 10.8909 33.3206 10.844 33.3193 10.7957C33.3189 10.7507 33.3184 10.7057 33.3179 10.6593C33.3172 10.6178 33.3164 10.5764 33.3156 10.5336C33.332 10.4248 33.332 10.4248 33.3957 10.3377C33.476 10.2808 33.476 10.2808 33.623 10.2868Z" fill="white"/>
<path d="M19.4439 13.5815C19.5723 13.5386 19.6957 13.5317 19.8179 13.5571C19.8719 13.5684 19.9224 13.5856 19.9673 13.604L20.0836 13.6567L20.0914 13.6606L20.0982 13.6655C20.1247 13.6803 20.1511 13.6953 20.1783 13.7104C20.6541 13.9498 21.1318 13.9764 21.6666 13.8345C21.8096 13.7833 21.9434 13.712 22.0923 13.6206L22.1255 13.6001L22.1636 13.5874C22.367 13.5189 22.5521 13.5524 22.692 13.6011C22.7534 13.6224 22.818 13.6522 22.8755 13.6802L23.0201 13.7524C23.0909 13.7879 23.1614 13.8251 23.232 13.8608L23.233 13.8599C23.2712 13.8791 23.3098 13.8987 23.3492 13.9185C23.4715 13.9799 23.5936 14.0415 23.7154 14.103L23.9556 14.2231C24.1135 14.3025 24.2716 14.3819 24.4293 14.4614H24.4283L24.983 14.7388L25.1773 14.8345L25.1783 14.8354C25.7737 15.1314 26.3335 15.5335 26.6412 16.2095L26.6988 16.3481L26.7027 16.3569L26.7056 16.3657C26.8949 16.9529 26.8824 17.5171 26.8746 18.0532C26.8716 18.3409 26.8688 18.6289 26.8658 18.9253L26.8629 19.271H24.6382C24.6368 19.4692 24.6347 19.6674 24.6334 19.8657C24.631 20.2079 24.6282 20.5501 24.6255 20.8921C24.6201 21.5958 24.6148 22.2997 24.6099 23.0034L24.608 23.3218L24.2906 23.3501C24.2498 23.3537 24.2499 23.3533 24.2086 23.3569C23.6814 23.4035 23.1736 23.4521 22.6714 23.5444H22.6705C22.6151 23.5545 22.5595 23.5634 22.5025 23.5737L22.5035 23.5747C21.7872 23.7098 21.0816 23.9029 20.3599 24.1001V24.1011C20.1753 24.1512 19.9904 24.1989 19.8072 24.2466C19.734 24.2673 19.7319 24.2682 19.6529 24.2905L19.6451 24.2925L19.5582 23.9536L19.6441 24.2925C19.0477 24.4452 18.457 24.4209 17.9146 24.4067L17.5757 24.3979L17.5738 24.0591C17.5736 24.0251 17.574 23.9905 17.5738 23.9556C17.5688 23.122 17.5637 22.2881 17.5582 21.4546C17.5555 21.0516 17.5527 20.6486 17.5504 20.2456C17.5485 19.9209 17.5467 19.5957 17.5445 19.271H15.3218L15.3179 18.9253L15.3101 18.1147L15.3072 17.8423C15.2961 17.0161 15.3341 16.2074 16.0054 15.4673L16.0269 15.4458C16.6083 14.9044 17.3878 14.5972 18.0015 14.3062C18.0464 14.2849 18.0466 14.2849 18.0923 14.2632C18.122 14.2491 18.1516 14.2347 18.1822 14.2202L18.7535 13.936H18.7545C18.8024 13.9114 18.8506 13.8872 18.9 13.8618V13.8608C18.9891 13.8148 19.0781 13.7681 19.1666 13.7212L19.1705 13.7192C19.2298 13.6887 19.2302 13.6888 19.2906 13.6577C19.3241 13.6401 19.3576 13.6222 19.3922 13.604L19.4175 13.5903L19.4439 13.5815Z" stroke="white" stroke-width="0.7"/>
<path d="M19.4108 9.57617C20.0586 8.84061 21.0542 8.66414 21.9117 8.98926L22.0817 9.06055L22.0914 9.06543L22.1002 9.07031C22.711 9.40254 23.1031 9.92642 23.3385 10.5391L23.3434 10.5527L23.3473 10.5664C23.5913 11.3964 23.4818 12.2332 23.0787 12.9756L23.0719 12.9873C22.7798 13.4811 22.3363 13.9192 21.7233 14.0996L21.7096 14.1035L21.6959 14.1064C21.1597 14.2188 20.5143 14.206 19.983 13.8887L19.9713 13.8809L19.9586 13.8721C19.3337 13.4243 18.9064 12.8887 18.7477 12.0811L18.7467 12.0742L18.7448 12.0664C18.6223 11.2561 18.7331 10.492 19.2457 9.78613L19.2496 9.78027L19.2545 9.77539C19.2794 9.74396 19.3041 9.71207 19.3297 9.67969C19.3519 9.65108 19.3742 9.62225 19.3971 9.59277L19.4039 9.58398L19.4108 9.57617Z" stroke="white" stroke-width="0.7"/>
<path d="M17.7938 19.0518V24.7148L17.5292 24.7812C17.4024 24.8129 17.2751 24.844 17.1473 24.876L17.1122 24.8848C17.1109 24.8851 17.1067 24.8864 17.1053 24.8867C17.1016 24.8877 17.1038 24.8866 17.0995 24.8877C17.0941 24.889 17.0814 24.8932 17.076 24.8945C17.0707 24.8959 17.057 24.8991 17.0516 24.9004L17.0282 24.9062C17.0015 24.9129 17.0303 24.9055 17.0038 24.9121L16.9921 24.915C16.9888 24.9158 16.9884 24.9162 16.9852 24.917H16.9843L16.9823 24.918H16.9794L16.9677 24.9209C16.9705 24.9202 16.9712 24.9205 16.9618 24.9229C16.9519 24.9253 16.9648 24.9214 16.955 24.9238C16.9319 24.9296 16.9547 24.9249 16.9315 24.9307C16.919 24.9338 16.9196 24.9334 16.9071 24.9365H16.9052L16.9042 24.9375H16.9012C16.8996 24.9379 16.896 24.939 16.8944 24.9395L16.8885 24.9414C16.8824 24.9429 16.8893 24.9407 16.8827 24.9424C16.8749 24.9443 16.8661 24.9463 16.8583 24.9482C16.819 24.9581 16.8489 24.9511 16.8094 24.9609C16.7795 24.9684 16.7909 24.9641 16.7606 24.9717L16.7616 24.9727L16.4803 25.0439C16.4399 25.0542 16.3989 25.0647 16.3573 25.0752L16.1141 25.1367L15.994 25.167C15.9593 25.1758 15.9243 25.1843 15.8885 25.1934L15.8778 25.1963C15.8411 25.2043 15.7975 25.2139 15.7509 25.2188C15.7058 25.2234 15.6606 25.2236 15.62 25.2236H15.2704V19.0518H17.7938Z" stroke="white" stroke-width="0.7"/>
<path d="M26.866 19.0996V23.2549H24.3904V19.0996H26.866Z" stroke="white" stroke-width="0.7"/>
<path d="M22.4105 17.8045C22.4726 17.8044 22.5346 17.8043 22.5986 17.8041C22.6309 17.8043 22.6633 17.8045 22.6967 17.8047C22.7956 17.8053 22.8945 17.8047 22.9934 17.8041C23.0555 17.8043 23.1176 17.8044 23.1815 17.8045C23.2387 17.8046 23.2959 17.8047 23.3548 17.8048C23.492 17.8173 23.492 17.8173 23.588 17.9133C23.603 18.0573 23.603 18.0573 23.588 18.2013C23.4173 18.3151 23.3417 18.3096 23.1393 18.31C23.0796 18.3101 23.0198 18.3103 22.9583 18.3104C22.8958 18.31 22.8334 18.3096 22.769 18.3093C22.7063 18.3096 22.6437 18.31 22.5792 18.3104C22.5195 18.3103 22.4598 18.3101 22.3983 18.31C22.316 18.3098 22.316 18.3098 22.232 18.3097C22.1 18.2973 22.1 18.2973 22.004 18.2013C21.992 18.0573 21.992 18.0573 22.004 17.9133C22.1382 17.779 22.2228 17.8049 22.4105 17.8045Z" fill="white"/>
</g>
<defs>
<clipPath id="clip0_5305_2601">
<rect width="48" height="48" fill="white" transform="translate(0.5 0.296875)"/>
</clipPath>
</defs>
</svg>
