<svg width="42" height="43" viewBox="0 0 42 43" fill="none" xmlns="http://www.w3.org/2000/svg">
<path d="M23.572 35.0874C23.8023 35.1087 23.9823 35.1484 24.1491 35.2456C24.2292 35.2923 24.3016 35.3493 24.3718 35.4155L24.5817 35.6372L24.5905 35.647L24.5983 35.6577C24.6986 35.7975 24.7988 35.9376 24.902 36.0815C24.9556 36.1557 25.0099 36.2307 25.0651 36.3071L25.3932 36.7681C25.5415 36.9772 25.6942 37.1845 25.8474 37.3931L25.8483 37.394C26.1768 37.8466 26.364 38.1028 26.4606 38.3032C26.5722 38.5348 26.569 38.7056 26.569 38.939V39.189H26.319C26.1827 39.189 26.0731 39.1885 25.986 39.1851C25.8996 39.1817 25.8186 39.1747 25.7438 39.1548C25.5749 39.1096 25.4781 39.0065 25.3835 38.9136L25.3659 38.897L25.3513 38.8755C25.2882 38.7823 25.2248 38.6893 25.1599 38.5933V38.5923C25.0553 38.4407 25.0547 38.4398 24.947 38.2837L24.944 38.2808C24.8726 38.1733 24.8018 38.0653 24.7282 37.9546L24.5095 37.6353L24.5085 37.6343L24.0876 37.0103C23.968 36.8317 23.847 36.6547 23.7233 36.48L23.7224 36.479C23.5425 36.223 23.4233 36.0568 23.362 35.895C23.2952 35.7188 23.2985 35.5534 23.2985 35.3364V35.062L23.572 35.0874Z" fill="white" stroke="white" stroke-width="0.5"/>
<mask id="path-2-outside-1_4722_3495" maskUnits="userSpaceOnUse" x="4.39975" y="2.93848" width="33" height="33" fill="black">
<rect fill="white" x="4.39975" y="2.93848" width="33" height="33"/>
<path d="M20.1522 5.75694C20.2341 5.8168 20.316 5.87665 20.4003 5.93831C21.1393 6.5313 21.6823 7.29883 22.254 8.04591C22.5739 8.45882 22.9043 8.86315 23.2346 9.26781C23.3011 9.34942 23.3677 9.43102 23.4362 9.51511C23.5655 9.67362 23.6949 9.8321 23.8243 9.99053C23.9801 10.1814 24.1353 10.3728 24.2904 10.5642C27.4048 14.4349 27.4048 14.4349 31.891 16.3168C33.1961 16.431 34.4725 16.3292 35.6767 15.7708C36.0301 15.6204 36.0301 15.6204 36.3233 15.658C36.3853 15.6853 36.4473 15.7126 36.5112 15.7407C36.3909 16.1016 36.3909 16.1016 36.0752 16.2599C33.8634 17.0766 31.8006 17.2212 29.606 16.236C27.4805 15.2052 25.9972 13.5821 24.5309 11.7628C24.2678 11.4418 23.9983 11.1283 23.7254 10.8156C23.1383 10.1417 22.5848 9.45347 22.0543 8.73404C20.4543 6.5792 18.7384 5.13239 16.0334 4.61516C13.5832 4.28406 11.2272 4.80783 9.2212 6.2832C8.29346 7.05516 7.48291 7.8617 7.35488 9.09725C7.31997 9.54725 7.29841 9.9971 7.28158 10.4481C7.39477 10.3686 7.50796 10.289 7.62458 10.2071C7.7758 10.1044 7.92711 10.0018 8.07847 9.89931C8.15275 9.84667 8.22702 9.79403 8.30354 9.73979C8.68473 9.485 8.8899 9.36599 9.3584 9.36319C9.74292 9.50656 9.84571 9.60847 10.0632 9.95194C10.1325 10.0589 10.2018 10.1659 10.2732 10.2761C10.3586 10.4137 10.444 10.5512 10.5293 10.6887C10.6483 10.8764 10.7675 11.0641 10.8869 11.2516C11.1392 11.6489 11.39 12.047 11.6396 12.446C11.9041 12.8676 12.1752 13.2835 12.4539 13.6959C12.8787 13.5745 13.1816 13.451 13.544 13.1922C13.8973 12.9741 13.8973 12.9741 14.1914 12.9877C14.5834 13.1238 14.7114 13.2918 14.9592 13.6221C15.042 13.7313 15.1247 13.8405 15.2099 13.9531C15.2928 14.0666 15.3757 14.1802 15.4611 14.2973C15.5384 14.402 15.6157 14.5068 15.6953 14.6147C16.8532 16.2076 17.917 17.8438 18.8291 19.5899C18.8736 19.675 18.9182 19.7601 18.9641 19.8479C19.6332 21.1598 20.0459 22.5469 20.4704 23.9514C20.8545 25.2175 21.2929 26.3812 21.9565 27.5288C22.0387 27.6794 22.1204 27.8302 22.2018 27.9813C22.5966 28.7064 23.0114 29.4145 23.4554 30.1107C23.527 30.2236 23.5986 30.3364 23.6724 30.4527C23.814 30.6747 23.9571 30.8957 24.1018 31.1156C24.3773 31.5469 24.5847 31.8814 24.6785 32.3882C24.5792 32.799 24.4573 32.8891 24.1067 33.1221C23.9882 33.2014 23.8697 33.2806 23.7477 33.3622C23.6766 33.4078 23.6055 33.4534 23.5322 33.5003C23.2268 33.6976 22.9256 33.9009 22.6237 34.1037C22.3865 34.2604 22.149 34.4169 21.9114 34.5731C21.7956 34.6506 21.6797 34.7281 21.5604 34.808C21.4495 34.8795 21.3387 34.951 21.2245 35.0246C21.0755 35.1222 21.0755 35.1222 20.9236 35.2218C20.5598 35.3793 20.4005 35.3676 20.0319 35.2271C19.8149 35.0169 19.8149 35.0169 19.6194 34.7465C19.5477 34.6483 19.4759 34.5502 19.402 34.4491C19.0806 33.9875 18.7647 33.5228 18.4532 33.0545C16.9861 30.8857 15.3457 29.0414 13.2959 27.4085C10.9601 25.4723 9.33968 23.1209 7.76272 20.5522C7.66821 20.4 7.66821 20.4 7.57178 20.2448C7.3982 19.9648 7.22669 19.6837 7.05604 19.4019C7.00515 19.3197 6.95426 19.2374 6.90183 19.1527C6.44792 18.3887 6.44792 18.3887 6.55986 17.9059C6.77976 17.6799 6.77976 17.6799 7.07107 17.4774C7.45823 17.2034 7.79575 16.9264 8.12358 16.5827C8.00545 16.3932 7.88728 16.2038 7.76901 16.0144C7.66329 15.8449 7.55777 15.6753 7.45243 15.5056C7.14729 15.0153 6.83724 14.5291 6.51945 14.0468C6.45359 13.9458 6.38773 13.8448 6.31987 13.7406C6.19111 13.5434 6.06107 13.3469 5.92964 13.1514C5.66726 12.7467 5.49068 12.4431 5.39975 11.9653C5.47728 11.651 5.47728 11.651 5.73618 11.4767C5.84673 11.4275 5.95729 11.3784 6.07119 11.3277C6.41062 11.1157 6.64119 10.9683 6.73923 10.5673C6.7769 10.1711 6.77776 9.77854 6.77829 9.38078C6.78426 8.15186 7.25381 7.38453 8.08881 6.49793C11.3793 3.39277 16.5264 3.07338 20.1522 5.75694ZM13.5468 13.7447C13.4553 13.8044 13.3638 13.8641 13.2696 13.9256C13.1741 13.9887 13.0786 14.0518 12.9802 14.1169C12.8355 14.2115 12.8355 14.2115 12.6879 14.3081C12.4492 14.4644 12.2108 14.6212 11.9728 14.7784C12.0323 14.8727 12.0918 14.967 12.1532 15.0641C12.3336 15.3799 12.3336 15.3799 12.3336 15.6204C12.2145 15.6601 12.0954 15.6998 11.9728 15.7407C11.8934 15.5423 11.814 15.3438 11.7322 15.1393C11.3421 15.2154 11.0687 15.3543 10.737 15.5711C10.6385 15.6352 10.54 15.6992 10.4385 15.7652C10.3345 15.834 10.2305 15.9029 10.1233 15.9738C9.96349 16.079 9.96349 16.079 9.8004 16.1864C9.48123 16.3975 9.16308 16.6101 8.8453 16.8233C8.7545 16.884 8.66369 16.9446 8.57013 17.0071C8.33228 17.1671 8.09605 17.3291 7.86046 17.4924C7.75559 17.5632 7.75559 17.5632 7.6486 17.6354C7.39318 17.816 7.18984 17.979 7.02691 18.2484C7.05025 18.6771 7.2975 18.9874 7.52967 19.3343C7.64154 19.5065 7.75336 19.6788 7.86515 19.8511C7.92613 19.9441 7.98711 20.0371 8.04993 20.1328C8.25483 20.4488 8.45418 20.7678 8.65265 21.0878C9.45158 22.3721 10.2669 23.612 11.251 24.7622C11.3032 24.8238 11.3553 24.8853 11.409 24.9488C12.2701 25.9558 13.2355 26.8112 14.2582 27.6491C14.3689 27.7421 14.4796 27.8352 14.5937 27.931C14.8363 28.1543 14.8363 28.1543 15.1002 28.1302C15.1275 28.1997 15.1548 28.2692 15.1829 28.3407C15.3804 28.6793 15.6337 28.8553 15.9422 29.0925C15.9819 29.1719 16.0216 29.2513 16.0625 29.3331C16.1419 29.3331 16.2213 29.3331 16.3031 29.3331C16.3333 29.4024 16.3635 29.4717 16.3947 29.5431C16.5629 29.8494 16.7579 30.0531 17.0022 30.3029C17.7692 31.1378 18.3742 32.0829 19.0026 33.0236C19.274 33.4277 19.551 33.8277 19.829 34.2273C19.9153 34.3518 20.0017 34.4763 20.0907 34.6046C20.1507 34.6909 20.2107 34.7773 20.2725 34.8663C20.6929 34.7102 21.0545 34.5268 21.4293 34.2813C21.5835 34.1807 21.5835 34.1807 21.7409 34.0781C21.8468 34.0082 21.9527 33.9384 22.0618 33.8664C22.1668 33.7979 22.2717 33.7295 22.3799 33.659C22.9704 33.2723 23.5506 32.8753 24.1217 32.4606C24.0435 32.0645 23.8971 31.7706 23.6899 31.4254C23.5939 31.2645 23.5939 31.2645 23.4959 31.1002C23.427 30.986 23.3582 30.8717 23.2872 30.754C23.2167 30.6354 23.1462 30.5168 23.0736 30.3946C22.7535 29.8565 22.4309 29.3203 22.1003 28.7885C21.0341 27.0591 20.3821 25.2334 19.7556 23.3072C18.7337 20.1687 17.2148 17.6271 15.3072 14.9519C15.1594 14.7422 15.014 14.5308 14.8701 14.3183C14.7952 14.2081 14.7202 14.0979 14.643 13.9844C14.5751 13.8832 14.5071 13.782 14.4371 13.6777C14.3485 13.5676 14.3485 13.5676 14.2582 13.4553C13.9407 13.4553 13.8115 13.5709 13.5468 13.7447Z"/>
</mask>
<path d="M20.1522 5.75694C20.2341 5.8168 20.316 5.87665 20.4003 5.93831C21.1393 6.5313 21.6823 7.29883 22.254 8.04591C22.5739 8.45882 22.9043 8.86315 23.2346 9.26781C23.3011 9.34942 23.3677 9.43102 23.4362 9.51511C23.5655 9.67362 23.6949 9.8321 23.8243 9.99053C23.9801 10.1814 24.1353 10.3728 24.2904 10.5642C27.4048 14.4349 27.4048 14.4349 31.891 16.3168C33.1961 16.431 34.4725 16.3292 35.6767 15.7708C36.0301 15.6204 36.0301 15.6204 36.3233 15.658C36.3853 15.6853 36.4473 15.7126 36.5112 15.7407C36.3909 16.1016 36.3909 16.1016 36.0752 16.2599C33.8634 17.0766 31.8006 17.2212 29.606 16.236C27.4805 15.2052 25.9972 13.5821 24.5309 11.7628C24.2678 11.4418 23.9983 11.1283 23.7254 10.8156C23.1383 10.1417 22.5848 9.45347 22.0543 8.73404C20.4543 6.5792 18.7384 5.13239 16.0334 4.61516C13.5832 4.28406 11.2272 4.80783 9.2212 6.2832C8.29346 7.05516 7.48291 7.8617 7.35488 9.09725C7.31997 9.54725 7.29841 9.9971 7.28158 10.4481C7.39477 10.3686 7.50796 10.289 7.62458 10.2071C7.7758 10.1044 7.92711 10.0018 8.07847 9.89931C8.15275 9.84667 8.22702 9.79403 8.30354 9.73979C8.68473 9.485 8.8899 9.36599 9.3584 9.36319C9.74292 9.50656 9.84571 9.60847 10.0632 9.95194C10.1325 10.0589 10.2018 10.1659 10.2732 10.2761C10.3586 10.4137 10.444 10.5512 10.5293 10.6887C10.6483 10.8764 10.7675 11.0641 10.8869 11.2516C11.1392 11.6489 11.39 12.047 11.6396 12.446C11.9041 12.8676 12.1752 13.2835 12.4539 13.6959C12.8787 13.5745 13.1816 13.451 13.544 13.1922C13.8973 12.9741 13.8973 12.9741 14.1914 12.9877C14.5834 13.1238 14.7114 13.2918 14.9592 13.6221C15.042 13.7313 15.1247 13.8405 15.2099 13.9531C15.2928 14.0666 15.3757 14.1802 15.4611 14.2973C15.5384 14.402 15.6157 14.5068 15.6953 14.6147C16.8532 16.2076 17.917 17.8438 18.8291 19.5899C18.8736 19.675 18.9182 19.7601 18.9641 19.8479C19.6332 21.1598 20.0459 22.5469 20.4704 23.9514C20.8545 25.2175 21.2929 26.3812 21.9565 27.5288C22.0387 27.6794 22.1204 27.8302 22.2018 27.9813C22.5966 28.7064 23.0114 29.4145 23.4554 30.1107C23.527 30.2236 23.5986 30.3364 23.6724 30.4527C23.814 30.6747 23.9571 30.8957 24.1018 31.1156C24.3773 31.5469 24.5847 31.8814 24.6785 32.3882C24.5792 32.799 24.4573 32.8891 24.1067 33.1221C23.9882 33.2014 23.8697 33.2806 23.7477 33.3622C23.6766 33.4078 23.6055 33.4534 23.5322 33.5003C23.2268 33.6976 22.9256 33.9009 22.6237 34.1037C22.3865 34.2604 22.149 34.4169 21.9114 34.5731C21.7956 34.6506 21.6797 34.7281 21.5604 34.808C21.4495 34.8795 21.3387 34.951 21.2245 35.0246C21.0755 35.1222 21.0755 35.1222 20.9236 35.2218C20.5598 35.3793 20.4005 35.3676 20.0319 35.2271C19.8149 35.0169 19.8149 35.0169 19.6194 34.7465C19.5477 34.6483 19.4759 34.5502 19.402 34.4491C19.0806 33.9875 18.7647 33.5228 18.4532 33.0545C16.9861 30.8857 15.3457 29.0414 13.2959 27.4085C10.9601 25.4723 9.33968 23.1209 7.76272 20.5522C7.66821 20.4 7.66821 20.4 7.57178 20.2448C7.3982 19.9648 7.22669 19.6837 7.05604 19.4019C7.00515 19.3197 6.95426 19.2374 6.90183 19.1527C6.44792 18.3887 6.44792 18.3887 6.55986 17.9059C6.77976 17.6799 6.77976 17.6799 7.07107 17.4774C7.45823 17.2034 7.79575 16.9264 8.12358 16.5827C8.00545 16.3932 7.88728 16.2038 7.76901 16.0144C7.66329 15.8449 7.55777 15.6753 7.45243 15.5056C7.14729 15.0153 6.83724 14.5291 6.51945 14.0468C6.45359 13.9458 6.38773 13.8448 6.31987 13.7406C6.19111 13.5434 6.06107 13.3469 5.92964 13.1514C5.66726 12.7467 5.49068 12.4431 5.39975 11.9653C5.47728 11.651 5.47728 11.651 5.73618 11.4767C5.84673 11.4275 5.95729 11.3784 6.07119 11.3277C6.41062 11.1157 6.64119 10.9683 6.73923 10.5673C6.7769 10.1711 6.77776 9.77854 6.77829 9.38078C6.78426 8.15186 7.25381 7.38453 8.08881 6.49793C11.3793 3.39277 16.5264 3.07338 20.1522 5.75694ZM13.5468 13.7447C13.4553 13.8044 13.3638 13.8641 13.2696 13.9256C13.1741 13.9887 13.0786 14.0518 12.9802 14.1169C12.8355 14.2115 12.8355 14.2115 12.6879 14.3081C12.4492 14.4644 12.2108 14.6212 11.9728 14.7784C12.0323 14.8727 12.0918 14.967 12.1532 15.0641C12.3336 15.3799 12.3336 15.3799 12.3336 15.6204C12.2145 15.6601 12.0954 15.6998 11.9728 15.7407C11.8934 15.5423 11.814 15.3438 11.7322 15.1393C11.3421 15.2154 11.0687 15.3543 10.737 15.5711C10.6385 15.6352 10.54 15.6992 10.4385 15.7652C10.3345 15.834 10.2305 15.9029 10.1233 15.9738C9.96349 16.079 9.96349 16.079 9.8004 16.1864C9.48123 16.3975 9.16308 16.6101 8.8453 16.8233C8.7545 16.884 8.66369 16.9446 8.57013 17.0071C8.33228 17.1671 8.09605 17.3291 7.86046 17.4924C7.75559 17.5632 7.75559 17.5632 7.6486 17.6354C7.39318 17.816 7.18984 17.979 7.02691 18.2484C7.05025 18.6771 7.2975 18.9874 7.52967 19.3343C7.64154 19.5065 7.75336 19.6788 7.86515 19.8511C7.92613 19.9441 7.98711 20.0371 8.04993 20.1328C8.25483 20.4488 8.45418 20.7678 8.65265 21.0878C9.45158 22.3721 10.2669 23.612 11.251 24.7622C11.3032 24.8238 11.3553 24.8853 11.409 24.9488C12.2701 25.9558 13.2355 26.8112 14.2582 27.6491C14.3689 27.7421 14.4796 27.8352 14.5937 27.931C14.8363 28.1543 14.8363 28.1543 15.1002 28.1302C15.1275 28.1997 15.1548 28.2692 15.1829 28.3407C15.3804 28.6793 15.6337 28.8553 15.9422 29.0925C15.9819 29.1719 16.0216 29.2513 16.0625 29.3331C16.1419 29.3331 16.2213 29.3331 16.3031 29.3331C16.3333 29.4024 16.3635 29.4717 16.3947 29.5431C16.5629 29.8494 16.7579 30.0531 17.0022 30.3029C17.7692 31.1378 18.3742 32.0829 19.0026 33.0236C19.274 33.4277 19.551 33.8277 19.829 34.2273C19.9153 34.3518 20.0017 34.4763 20.0907 34.6046C20.1507 34.6909 20.2107 34.7773 20.2725 34.8663C20.6929 34.7102 21.0545 34.5268 21.4293 34.2813C21.5835 34.1807 21.5835 34.1807 21.7409 34.0781C21.8468 34.0082 21.9527 33.9384 22.0618 33.8664C22.1668 33.7979 22.2717 33.7295 22.3799 33.659C22.9704 33.2723 23.5506 32.8753 24.1217 32.4606C24.0435 32.0645 23.8971 31.7706 23.6899 31.4254C23.5939 31.2645 23.5939 31.2645 23.4959 31.1002C23.427 30.986 23.3582 30.8717 23.2872 30.754C23.2167 30.6354 23.1462 30.5168 23.0736 30.3946C22.7535 29.8565 22.4309 29.3203 22.1003 28.7885C21.0341 27.0591 20.3821 25.2334 19.7556 23.3072C18.7337 20.1687 17.2148 17.6271 15.3072 14.9519C15.1594 14.7422 15.014 14.5308 14.8701 14.3183C14.7952 14.2081 14.7202 14.0979 14.643 13.9844C14.5751 13.8832 14.5071 13.782 14.4371 13.6777C14.3485 13.5676 14.3485 13.5676 14.2582 13.4553C13.9407 13.4553 13.8115 13.5709 13.5468 13.7447Z" fill="white"/>
<path d="M20.1522 5.75694C20.2341 5.8168 20.316 5.87665 20.4003 5.93831C21.1393 6.5313 21.6823 7.29883 22.254 8.04591C22.5739 8.45882 22.9043 8.86315 23.2346 9.26781C23.3011 9.34942 23.3677 9.43102 23.4362 9.51511C23.5655 9.67362 23.6949 9.8321 23.8243 9.99053C23.9801 10.1814 24.1353 10.3728 24.2904 10.5642C27.4048 14.4349 27.4048 14.4349 31.891 16.3168C33.1961 16.431 34.4725 16.3292 35.6767 15.7708C36.0301 15.6204 36.0301 15.6204 36.3233 15.658C36.3853 15.6853 36.4473 15.7126 36.5112 15.7407C36.3909 16.1016 36.3909 16.1016 36.0752 16.2599C33.8634 17.0766 31.8006 17.2212 29.606 16.236C27.4805 15.2052 25.9972 13.5821 24.5309 11.7628C24.2678 11.4418 23.9983 11.1283 23.7254 10.8156C23.1383 10.1417 22.5848 9.45347 22.0543 8.73404C20.4543 6.5792 18.7384 5.13239 16.0334 4.61516C13.5832 4.28406 11.2272 4.80783 9.2212 6.2832C8.29346 7.05516 7.48291 7.8617 7.35488 9.09725C7.31997 9.54725 7.29841 9.9971 7.28158 10.4481C7.39477 10.3686 7.50796 10.289 7.62458 10.2071C7.7758 10.1044 7.92711 10.0018 8.07847 9.89931C8.15275 9.84667 8.22702 9.79403 8.30354 9.73979C8.68473 9.485 8.8899 9.36599 9.3584 9.36319C9.74292 9.50656 9.84571 9.60847 10.0632 9.95194C10.1325 10.0589 10.2018 10.1659 10.2732 10.2761C10.3586 10.4137 10.444 10.5512 10.5293 10.6887C10.6483 10.8764 10.7675 11.0641 10.8869 11.2516C11.1392 11.6489 11.39 12.047 11.6396 12.446C11.9041 12.8676 12.1752 13.2835 12.4539 13.6959C12.8787 13.5745 13.1816 13.451 13.544 13.1922C13.8973 12.9741 13.8973 12.9741 14.1914 12.9877C14.5834 13.1238 14.7114 13.2918 14.9592 13.6221C15.042 13.7313 15.1247 13.8405 15.2099 13.9531C15.2928 14.0666 15.3757 14.1802 15.4611 14.2973C15.5384 14.402 15.6157 14.5068 15.6953 14.6147C16.8532 16.2076 17.917 17.8438 18.8291 19.5899C18.8736 19.675 18.9182 19.7601 18.9641 19.8479C19.6332 21.1598 20.0459 22.5469 20.4704 23.9514C20.8545 25.2175 21.2929 26.3812 21.9565 27.5288C22.0387 27.6794 22.1204 27.8302 22.2018 27.9813C22.5966 28.7064 23.0114 29.4145 23.4554 30.1107C23.527 30.2236 23.5986 30.3364 23.6724 30.4527C23.814 30.6747 23.9571 30.8957 24.1018 31.1156C24.3773 31.5469 24.5847 31.8814 24.6785 32.3882C24.5792 32.799 24.4573 32.8891 24.1067 33.1221C23.9882 33.2014 23.8697 33.2806 23.7477 33.3622C23.6766 33.4078 23.6055 33.4534 23.5322 33.5003C23.2268 33.6976 22.9256 33.9009 22.6237 34.1037C22.3865 34.2604 22.149 34.4169 21.9114 34.5731C21.7956 34.6506 21.6797 34.7281 21.5604 34.808C21.4495 34.8795 21.3387 34.951 21.2245 35.0246C21.0755 35.1222 21.0755 35.1222 20.9236 35.2218C20.5598 35.3793 20.4005 35.3676 20.0319 35.2271C19.8149 35.0169 19.8149 35.0169 19.6194 34.7465C19.5477 34.6483 19.4759 34.5502 19.402 34.4491C19.0806 33.9875 18.7647 33.5228 18.4532 33.0545C16.9861 30.8857 15.3457 29.0414 13.2959 27.4085C10.9601 25.4723 9.33968 23.1209 7.76272 20.5522C7.66821 20.4 7.66821 20.4 7.57178 20.2448C7.3982 19.9648 7.22669 19.6837 7.05604 19.4019C7.00515 19.3197 6.95426 19.2374 6.90183 19.1527C6.44792 18.3887 6.44792 18.3887 6.55986 17.9059C6.77976 17.6799 6.77976 17.6799 7.07107 17.4774C7.45823 17.2034 7.79575 16.9264 8.12358 16.5827C8.00545 16.3932 7.88728 16.2038 7.76901 16.0144C7.66329 15.8449 7.55777 15.6753 7.45243 15.5056C7.14729 15.0153 6.83724 14.5291 6.51945 14.0468C6.45359 13.9458 6.38773 13.8448 6.31987 13.7406C6.19111 13.5434 6.06107 13.3469 5.92964 13.1514C5.66726 12.7467 5.49068 12.4431 5.39975 11.9653C5.47728 11.651 5.47728 11.651 5.73618 11.4767C5.84673 11.4275 5.95729 11.3784 6.07119 11.3277C6.41062 11.1157 6.64119 10.9683 6.73923 10.5673C6.7769 10.1711 6.77776 9.77854 6.77829 9.38078C6.78426 8.15186 7.25381 7.38453 8.08881 6.49793C11.3793 3.39277 16.5264 3.07338 20.1522 5.75694ZM13.5468 13.7447C13.4553 13.8044 13.3638 13.8641 13.2696 13.9256C13.1741 13.9887 13.0786 14.0518 12.9802 14.1169C12.8355 14.2115 12.8355 14.2115 12.6879 14.3081C12.4492 14.4644 12.2108 14.6212 11.9728 14.7784C12.0323 14.8727 12.0918 14.967 12.1532 15.0641C12.3336 15.3799 12.3336 15.3799 12.3336 15.6204C12.2145 15.6601 12.0954 15.6998 11.9728 15.7407C11.8934 15.5423 11.814 15.3438 11.7322 15.1393C11.3421 15.2154 11.0687 15.3543 10.737 15.5711C10.6385 15.6352 10.54 15.6992 10.4385 15.7652C10.3345 15.834 10.2305 15.9029 10.1233 15.9738C9.96349 16.079 9.96349 16.079 9.8004 16.1864C9.48123 16.3975 9.16308 16.6101 8.8453 16.8233C8.7545 16.884 8.66369 16.9446 8.57013 17.0071C8.33228 17.1671 8.09605 17.3291 7.86046 17.4924C7.75559 17.5632 7.75559 17.5632 7.6486 17.6354C7.39318 17.816 7.18984 17.979 7.02691 18.2484C7.05025 18.6771 7.2975 18.9874 7.52967 19.3343C7.64154 19.5065 7.75336 19.6788 7.86515 19.8511C7.92613 19.9441 7.98711 20.0371 8.04993 20.1328C8.25483 20.4488 8.45418 20.7678 8.65265 21.0878C9.45158 22.3721 10.2669 23.612 11.251 24.7622C11.3032 24.8238 11.3553 24.8853 11.409 24.9488C12.2701 25.9558 13.2355 26.8112 14.2582 27.6491C14.3689 27.7421 14.4796 27.8352 14.5937 27.931C14.8363 28.1543 14.8363 28.1543 15.1002 28.1302C15.1275 28.1997 15.1548 28.2692 15.1829 28.3407C15.3804 28.6793 15.6337 28.8553 15.9422 29.0925C15.9819 29.1719 16.0216 29.2513 16.0625 29.3331C16.1419 29.3331 16.2213 29.3331 16.3031 29.3331C16.3333 29.4024 16.3635 29.4717 16.3947 29.5431C16.5629 29.8494 16.7579 30.0531 17.0022 30.3029C17.7692 31.1378 18.3742 32.0829 19.0026 33.0236C19.274 33.4277 19.551 33.8277 19.829 34.2273C19.9153 34.3518 20.0017 34.4763 20.0907 34.6046C20.1507 34.6909 20.2107 34.7773 20.2725 34.8663C20.6929 34.7102 21.0545 34.5268 21.4293 34.2813C21.5835 34.1807 21.5835 34.1807 21.7409 34.0781C21.8468 34.0082 21.9527 33.9384 22.0618 33.8664C22.1668 33.7979 22.2717 33.7295 22.3799 33.659C22.9704 33.2723 23.5506 32.8753 24.1217 32.4606C24.0435 32.0645 23.8971 31.7706 23.6899 31.4254C23.5939 31.2645 23.5939 31.2645 23.4959 31.1002C23.427 30.986 23.3582 30.8717 23.2872 30.754C23.2167 30.6354 23.1462 30.5168 23.0736 30.3946C22.7535 29.8565 22.4309 29.3203 22.1003 28.7885C21.0341 27.0591 20.3821 25.2334 19.7556 23.3072C18.7337 20.1687 17.2148 17.6271 15.3072 14.9519C15.1594 14.7422 15.014 14.5308 14.8701 14.3183C14.7952 14.2081 14.7202 14.0979 14.643 13.9844C14.5751 13.8832 14.5071 13.782 14.4371 13.6777C14.3485 13.5676 14.3485 13.5676 14.2582 13.4553C13.9407 13.4553 13.8115 13.5709 13.5468 13.7447Z" stroke="white" mask="url(#path-2-outside-1_4722_3495)"/>
</svg>
