<svg width="43" height="43" viewBox="0 0 43 43" fill="none" xmlns="http://www.w3.org/2000/svg">
<g clip-path="url(#clip0_5293_2252)">
<mask id="path-1-inside-1_5293_2252" fill="white">
<path d="M3.67706 0.931357C3.7305 0.930985 3.78394 0.930613 3.839 0.93023C4.01694 0.929197 4.19487 0.929326 4.37281 0.929462C4.50086 0.92897 4.62891 0.928412 4.75696 0.927792C5.10409 0.926345 5.4512 0.925958 5.79833 0.925853C6.01548 0.925737 6.23262 0.925386 6.44977 0.924951C7.20811 0.923434 7.96645 0.922764 8.7248 0.922893C9.43037 0.922991 10.1359 0.921261 10.8415 0.918669C11.4483 0.91652 12.0551 0.915644 12.6619 0.915749C13.0239 0.91579 13.3858 0.915329 13.7477 0.913587C14.0884 0.911991 14.4291 0.91199 14.7698 0.913179C14.8944 0.91335 15.0189 0.912968 15.1434 0.911972C16.05 0.90519 16.8313 0.991553 17.519 1.6339C18.117 2.29902 18.2437 2.95976 18.2349 3.83144C18.2347 3.91814 18.2344 4.00484 18.2342 4.09417C18.2333 4.36997 18.2312 4.64576 18.2291 4.92156C18.2283 5.10901 18.2276 5.29646 18.2269 5.48392C18.2251 5.94247 18.2223 6.401 18.2189 6.85954C18.2881 6.85845 18.2881 6.85845 18.3588 6.85734C18.8405 6.85006 19.3223 6.84512 19.804 6.84152C19.9837 6.83987 20.1633 6.83763 20.343 6.83479C20.6016 6.8308 20.8602 6.82895 21.1188 6.8275C21.1988 6.82581 21.2788 6.82411 21.3612 6.82237C21.8317 6.82221 22.1216 6.85758 22.4845 7.18767C22.8572 7.60539 22.8609 7.96694 22.8562 8.50017C22.8565 8.57842 22.8568 8.65667 22.8572 8.73729C22.8574 8.90221 22.8568 9.06713 22.8554 9.23204C22.8536 9.48376 22.8554 9.73528 22.8575 9.98699C22.8573 10.1476 22.8568 10.3083 22.8562 10.4689C22.8569 10.5438 22.8575 10.6187 22.8582 10.6958C22.8515 11.1515 22.7997 11.4281 22.4845 11.7814C22.0182 12.2079 21.5352 12.1539 20.9274 12.1468C20.8201 12.1468 20.7128 12.1469 20.6023 12.1469C20.3091 12.147 20.0159 12.1451 19.7228 12.1428C19.416 12.1408 19.1092 12.1406 18.8025 12.1402C18.222 12.1392 17.6416 12.1365 17.0611 12.1332C16.4001 12.1295 15.7391 12.1277 15.0781 12.1261C13.7188 12.1226 12.3594 12.1169 11.0001 12.1095C11.1078 11.8279 11.2072 11.628 11.4106 11.4049C12.2696 10.379 12.3364 9.49947 12.3001 8.21146C12.2963 7.86848 12.3041 7.69906 12.4456 7.38153C12.8706 6.9593 13.1737 6.82217 13.764 6.82237C13.884 6.82491 13.884 6.82491 14.0064 6.8275C14.0895 6.82796 14.1726 6.82843 14.2581 6.82891C14.5223 6.83074 14.7863 6.83485 15.0504 6.83904C15.23 6.84068 15.4095 6.84218 15.5891 6.84352C16.0282 6.84685 16.4672 6.85327 16.9064 6.85954C16.9064 6.20986 16.9064 5.56017 16.9064 4.89079C12.142 4.89079 7.37762 4.89079 2.46887 4.89079C2.46887 12.2539 2.46887 19.617 2.46887 27.2033C2.902 27.2033 3.33512 27.2033 3.78137 27.2033C3.77756 27.0134 3.77376 26.8235 3.76983 26.6278C3.76726 26.4404 3.76528 26.2531 3.76335 26.0658C3.76171 25.9372 3.75949 25.8086 3.75662 25.6801C3.727 24.3177 4.00678 23.3244 4.95544 22.3019C5.82405 21.4799 6.80454 21.2678 7.96496 21.215C7.91431 21.193 7.86366 21.171 7.81148 21.1484C6.94866 20.7491 6.31622 20.2022 5.91418 19.3283C5.61823 18.4791 5.6065 17.4008 5.96994 16.571C6.42907 15.741 7.11037 15.0854 8.0236 14.7887C9.00625 14.5912 10.0085 14.6489 10.8703 15.1864C11.5925 15.7065 12.1352 16.3944 12.3126 17.2775C12.4224 18.2961 12.3352 19.1961 11.723 20.0461C11.2741 20.5825 10.7557 20.977 10.0978 21.215C10.1633 21.2171 10.2289 21.2192 10.2964 21.2214C11.553 21.2863 12.5405 21.6935 13.4124 22.6147C14.2345 23.6142 14.3174 24.6155 14.2968 25.86C14.2955 25.9907 14.2944 26.1213 14.2934 26.2519C14.2909 26.5691 14.2861 26.8861 14.2814 27.2033C15.1476 27.2033 16.0139 27.2033 16.9064 27.2033C16.9064 25.552 16.9064 23.9007 16.9064 22.1994C17.2718 22.3212 17.2718 22.3212 17.6447 22.4455C17.8353 22.4777 18.0266 22.5071 18.2189 22.5275C18.2155 22.5743 18.2122 22.6211 18.2087 22.6693C17.9464 24.7939 17.9464 24.7939 18.4795 26.7536C18.9271 27.1628 19.4512 27.3586 20.0252 27.5324C20.3667 27.6456 20.644 27.825 20.9413 28.0236C21.1832 28.1853 21.1832 28.1853 21.4181 28.2697C21.7429 28.1664 22.0327 28.0001 22.3297 27.8349C22.3768 27.8088 22.4238 27.7827 22.4722 27.7558C22.5714 27.7006 22.6704 27.6454 22.7694 27.5901C22.9188 27.5066 23.0685 27.4236 23.2181 27.3406C23.4941 27.187 23.7697 27.0333 24.0431 26.8752C24.1013 26.8491 24.1595 26.8229 24.2195 26.796C24.4099 26.7011 24.55 26.617 24.6993 26.465C24.7943 26.1709 24.7873 25.8885 24.7814 25.5816C24.7827 25.4541 24.7827 25.4541 24.7841 25.324C24.7862 25.0531 24.7839 24.7825 24.7814 24.5116C24.782 24.3278 24.783 24.1439 24.7843 23.96C24.7867 23.5098 24.7851 23.0598 24.7814 22.6095C25.2145 22.6095 25.6476 22.6095 26.0939 22.6095C26.0939 24.1255 26.0939 25.6414 26.0939 27.2033C26.9601 27.2033 27.8264 27.2033 28.7189 27.2033C28.7151 27.0134 28.7113 26.8235 28.7073 26.6278C28.7048 26.4404 28.7028 26.2531 28.7008 26.0658C28.6992 25.9372 28.697 25.8086 28.6941 25.6801C28.6645 24.3177 28.9443 23.3244 29.8929 22.3019C30.564 21.6668 31.385 21.2787 32.3132 21.2913C32.3932 21.2921 32.4732 21.2929 32.5556 21.2938C32.6159 21.2949 32.6763 21.2959 32.7384 21.297C32.9023 21.7028 33.0659 22.1087 33.2291 22.5147C33.2847 22.6529 33.3404 22.791 33.3962 22.9291C33.4763 23.1273 33.556 23.3257 33.6356 23.5241C33.6607 23.586 33.6859 23.648 33.7117 23.7118C33.8868 24.1495 33.8868 24.1495 33.8868 24.3322C33.941 24.3322 33.9951 24.3322 34.0509 24.3322C34.0633 24.2864 34.0756 24.2407 34.0883 24.1935C34.2678 23.5608 34.5117 22.9601 34.7635 22.3532C34.8059 22.2502 34.8483 22.1473 34.8906 22.0443C34.9932 21.7951 35.0961 21.546 35.1993 21.297C36.4364 21.2661 37.3047 21.6275 38.214 22.4711C39.1564 23.4669 39.2559 24.5543 39.2343 25.86C39.233 25.9907 39.2319 26.1213 39.2309 26.2519C39.2284 26.5691 39.2236 26.8861 39.2189 27.2033C39.652 27.2033 40.0851 27.2033 40.5314 27.2033C40.5314 19.8402 40.5314 12.477 40.5314 4.89079C35.767 4.89079 31.0026 4.89079 26.0939 4.89079C26.0939 6.40673 26.0939 7.92267 26.0939 9.48454C26.2563 9.48454 26.4187 9.48454 26.5861 9.48454C26.9818 9.69035 27.1997 9.91134 27.4064 10.3049C27.4487 10.591 27.4401 10.8719 27.4316 11.1604C27.4305 11.2456 27.4294 11.3308 27.4282 11.4185C27.4257 11.6033 27.4225 11.7881 27.4186 11.9728C27.413 12.267 27.4103 12.561 27.4084 12.8552C27.4029 13.6915 27.3958 14.5278 27.3786 15.364C27.3682 15.8762 27.3641 16.3883 27.3637 16.9007C27.3625 17.0943 27.359 17.2879 27.3531 17.4814C27.3094 18.9628 27.6594 19.8391 28.6079 20.9825C28.7189 21.133 28.7189 21.133 28.7189 21.297C27.2942 21.3047 25.8695 21.3105 24.4448 21.314C23.7832 21.3157 23.1217 21.318 22.4602 21.3218C21.8835 21.3251 21.3069 21.3272 20.7303 21.3279C20.425 21.3283 20.1197 21.3293 19.8144 21.3317C19.4735 21.3344 19.1326 21.3344 18.7916 21.3343C18.6906 21.3355 18.5896 21.3367 18.4855 21.3379C17.6135 21.3336 17.6135 21.3336 17.2345 20.9689C16.8922 20.573 16.8599 20.2727 16.8691 19.7733C16.8691 19.7044 16.869 19.6355 16.869 19.5645C16.8692 19.3381 16.8718 19.1118 16.8743 18.8855C16.8749 18.728 16.8754 18.5705 16.8757 18.4131C16.877 17.9996 16.8802 17.5861 16.8838 17.1726C16.8872 16.7503 16.8887 16.328 16.8904 15.9057C16.8939 15.0778 16.8995 14.2499 16.9064 13.422C16.9619 13.4214 17.0175 13.4207 17.0747 13.42C17.6563 13.4129 18.2379 13.4048 18.8195 13.396C19.0361 13.3929 19.2527 13.39 19.4694 13.3874C19.782 13.3837 20.0945 13.3789 20.4071 13.374C20.5509 13.3726 20.5509 13.3726 20.6975 13.3711C21.6971 13.3534 22.6407 13.2782 23.3747 12.5287C23.8978 11.8741 24.0029 11.201 24.0585 10.3869C24.0685 10.2563 24.0685 10.2563 24.0788 10.1232C24.0951 9.91034 24.1105 9.69749 24.1251 9.48454C24.3417 9.48454 24.5582 9.48454 24.7814 9.48454C24.7806 9.40415 24.7799 9.32376 24.7792 9.24093C24.7725 8.48066 24.7676 7.7204 24.7644 6.96011C24.7627 6.56931 24.7604 6.17852 24.7566 5.78773C24.753 5.41009 24.7511 5.03247 24.7502 4.65482C24.7496 4.51125 24.7485 4.36768 24.7467 4.22412C24.7351 3.25319 24.7648 2.39961 25.462 1.65312C25.9997 1.16967 26.5766 0.93345 27.3021 0.931357C27.3555 0.930985 27.4089 0.930613 27.464 0.93023C27.6419 0.929197 27.8199 0.929326 27.9978 0.929462C28.1259 0.92897 28.2539 0.928412 28.382 0.927792C28.7291 0.926345 29.0762 0.925958 29.4233 0.925853C29.6405 0.925737 29.8576 0.925386 30.0748 0.924951C30.8331 0.923434 31.5915 0.922764 32.3498 0.922893C33.0554 0.922991 33.7609 0.921261 34.4665 0.918669C35.0733 0.91652 35.6801 0.915644 36.2869 0.915749C36.6489 0.91579 37.0108 0.915329 37.3727 0.913587C37.7134 0.911991 38.0541 0.91199 38.3948 0.913179C38.5194 0.91335 38.6439 0.912968 38.7684 0.911972C39.675 0.90519 40.4563 0.991553 41.144 1.6339C41.5977 2.13843 41.864 2.70535 41.865 3.39027C41.8655 3.48218 41.866 3.5741 41.8666 3.6688C41.8662 3.81901 41.8662 3.81901 41.8658 3.97226C41.8662 4.0793 41.8666 4.18633 41.8669 4.29661C41.8679 4.59321 41.8679 4.8898 41.8677 5.1864C41.8677 5.50648 41.8686 5.82656 41.8694 6.14665C41.8707 6.77359 41.8712 7.40052 41.8713 8.02746C41.8714 8.53717 41.8717 9.04687 41.8722 9.55658C41.8737 11.0021 41.8744 12.4477 41.8743 13.8932C41.8743 13.9711 41.8743 14.049 41.8743 14.1293C41.8743 14.2073 41.8743 14.2853 41.8743 14.3657C41.8742 15.6297 41.8758 16.8938 41.8781 18.1578C41.8804 19.4561 41.8816 20.7544 41.8814 22.0528C41.8814 22.7815 41.8818 23.5102 41.8836 24.239C41.8851 24.8595 41.8854 25.48 41.8843 26.1005C41.8838 26.4169 41.8838 26.7333 41.8852 27.0498C41.8867 27.3933 41.8857 27.7367 41.8844 28.0802C41.8853 28.1796 41.8861 28.279 41.887 28.3814C41.8805 29.1752 41.7162 29.8489 41.1633 30.441C40.6255 30.9244 40.0487 31.1606 39.3232 31.1627C39.2697 31.1631 39.2163 31.1635 39.1612 31.1639C38.9833 31.1649 38.8054 31.1648 38.6274 31.1646C38.4994 31.1651 38.3713 31.1657 38.2433 31.1663C37.8962 31.1677 37.549 31.1681 37.2019 31.1682C36.9848 31.1684 36.7676 31.1687 36.5505 31.1691C35.7921 31.1707 35.0338 31.1713 34.2754 31.1712C33.5699 31.1711 32.8643 31.1728 32.1588 31.1754C31.552 31.1776 30.9452 31.1784 30.3383 31.1783C29.9764 31.1783 29.6145 31.1788 29.2525 31.1805C28.9118 31.1821 28.5711 31.1821 28.2304 31.1809C28.1059 31.1807 27.9814 31.1811 27.8568 31.1821C26.9503 31.1889 26.169 31.1025 25.4812 30.4602C25.0012 29.9263 24.7921 29.3739 24.7365 28.6632C24.7259 28.5298 24.7259 28.5298 24.7151 28.3936C24.7099 28.3257 24.7047 28.2577 24.6993 28.1877C24.3797 28.3739 24.0602 28.5602 23.7406 28.7465C23.6501 28.7992 23.5597 28.8519 23.4665 28.9062C23.379 28.9573 23.2915 29.0083 23.2013 29.0609C23.121 29.1077 23.0406 29.1545 22.9579 29.2027C22.8061 29.2918 22.6556 29.383 22.5063 29.4764C22.3204 29.5822 22.3204 29.5822 22.1564 29.5822C22.1564 30.5297 22.1564 31.4771 22.1564 32.4533C22.4271 32.5074 22.6978 32.5616 22.9767 32.6174C23.2108 32.7133 23.426 32.8083 23.6483 32.925C23.7053 32.9544 23.7622 32.9839 23.8209 33.0143C24.8939 33.5834 25.6037 34.5467 25.9769 35.6999C26.1071 36.1442 26.1381 36.5602 26.1349 37.0214C26.1344 37.0999 26.1339 37.1784 26.1335 37.2593C26.107 38.3226 25.7852 39.1687 25.1095 40.0002C25.0584 40.0684 25.0073 40.1366 24.9547 40.2069C24.2914 40.9855 23.2001 41.5499 22.1827 41.6658C21.958 41.6766 21.7353 41.6792 21.5104 41.6767C21.3916 41.6758 21.3916 41.6758 21.2704 41.6748C20.6692 41.6609 20.1588 41.578 19.6134 41.3127C19.5345 41.275 19.4556 41.2374 19.3744 41.1986C18.2285 40.6118 17.4908 39.7284 17.0602 38.5082C16.7012 37.3544 16.7887 35.999 17.3165 34.9142C17.4889 34.6226 17.6773 34.3566 17.8907 34.0939C17.9421 34.0256 17.9935 33.9573 18.0465 33.8869C18.7719 33.032 19.7805 32.666 20.8439 32.4533C20.8439 31.5058 20.8439 30.5584 20.8439 29.5822C20.7085 29.5281 20.5732 29.4739 20.4337 29.4181C20.2634 29.3257 20.0946 29.2303 19.9271 29.133C19.857 29.0923 19.857 29.0923 19.7854 29.0509C19.6374 28.9651 19.4895 28.8789 19.3417 28.7927C19.2408 28.7341 19.1399 28.6756 19.039 28.6171C18.7928 28.4742 18.5468 28.331 18.3009 28.1877C18.2966 28.2537 18.2923 28.3197 18.2878 28.3877C18.2815 28.4751 18.2751 28.5625 18.2685 28.6526C18.2625 28.7389 18.2565 28.8252 18.2503 28.9142C18.1707 29.5665 17.8873 30.1272 17.3986 30.5666C16.8691 30.9647 16.3674 31.1608 15.6982 31.1627C15.6447 31.1631 15.5913 31.1635 15.5362 31.1639C15.3583 31.1649 15.1804 31.1648 15.0024 31.1646C14.8744 31.1651 14.7463 31.1657 14.6183 31.1663C14.2712 31.1677 13.924 31.1681 13.5769 31.1682C13.3598 31.1684 13.1426 31.1687 12.9255 31.1691C12.1671 31.1707 11.4088 31.1713 10.6504 31.1712C9.94488 31.1711 9.23932 31.1728 8.53376 31.1754C7.92695 31.1776 7.32015 31.1784 6.71334 31.1783C6.35139 31.1783 5.98945 31.1788 5.62751 31.1805C5.2868 31.1821 4.94613 31.1821 4.60542 31.1809C4.48089 31.1807 4.35636 31.1811 4.23183 31.1821C3.32526 31.1889 2.54396 31.1025 1.8562 30.4602C1.40258 29.9557 1.13627 29.3887 1.13527 28.7038C1.13474 28.6119 1.13421 28.52 1.13366 28.4253C1.13392 28.3251 1.13417 28.225 1.13443 28.1218C1.13406 28.0148 1.13369 27.9078 1.13331 27.7975C1.1323 27.5009 1.13232 27.2043 1.13252 26.9077C1.13255 26.5876 1.13165 26.2675 1.13087 25.9474C1.12951 25.3205 1.12905 24.6936 1.12896 24.0666C1.12889 23.5569 1.12855 23.0472 1.12803 22.5375C1.12658 21.092 1.12583 19.6464 1.12595 18.2009C1.12596 18.123 1.12596 18.045 1.12597 17.9648C1.12598 17.8868 1.12598 17.8087 1.12599 17.7284C1.12606 16.4643 1.12449 15.2003 1.12217 13.9363C1.11982 12.638 1.11868 11.3397 1.11883 10.0413C1.11888 9.31259 1.11843 8.58386 1.11666 7.85512C1.11517 7.23461 1.11481 6.61411 1.11593 5.99359C1.11646 5.67715 1.11647 5.36074 1.11505 5.04431C1.11352 4.70083 1.11454 4.35741 1.11581 4.01393C1.11496 3.91452 1.11412 3.81511 1.11325 3.71268C1.11971 2.91891 1.284 2.24519 1.83697 1.65312C2.37469 1.16967 2.95157 0.93345 3.67706 0.931357ZM14.2814 8.82829C14.2814 9.26142 14.2814 9.69454 14.2814 10.1408C16.447 10.1408 18.6126 10.1408 20.8439 10.1408C20.8439 9.70767 20.8439 9.27454 20.8439 8.82829C18.6782 8.82829 16.5126 8.82829 14.2814 8.82829ZM18.8751 15.3908C18.8751 15.8239 18.8751 16.257 18.8751 16.7033C21.0407 16.7033 23.2064 16.7033 25.4376 16.7033C25.4376 16.2702 25.4376 15.837 25.4376 15.3908C23.272 15.3908 21.1064 15.3908 18.8751 15.3908ZM18.8751 18.0158C18.8751 18.4489 18.8751 18.882 18.8751 19.3283C21.0407 19.3283 23.2064 19.3283 25.4376 19.3283C25.4376 18.8952 25.4376 18.462 25.4376 18.0158C23.272 18.0158 21.1064 18.0158 18.8751 18.0158ZM8.37512 23.2658C8.37512 23.6989 8.37512 24.132 8.37512 24.5783C8.80825 24.5783 9.24137 24.5783 9.68762 24.5783C9.68762 24.1452 9.68762 23.712 9.68762 23.2658C9.2545 23.2658 8.82137 23.2658 8.37512 23.2658ZM22.9767 35.3244C22.2999 36.0011 21.6232 36.6779 20.9259 37.3752C20.6393 37.2319 20.5043 37.1361 20.2902 36.9137C20.2398 36.8619 20.1895 36.8101 20.1376 36.7567C20.1 36.7172 20.0623 36.6776 20.0236 36.6369C19.9343 36.7099 19.8455 36.7835 19.757 36.8573C19.7075 36.8983 19.658 36.9392 19.607 36.9814C19.408 37.1608 19.408 37.1608 19.1212 37.5392C19.6626 38.0806 20.204 38.622 20.7618 39.1799C21.0414 39.0401 21.1724 38.9535 21.3832 38.7411C21.4391 38.6853 21.4949 38.6295 21.5524 38.572C21.6117 38.5118 21.671 38.4516 21.7321 38.3897C21.7936 38.328 21.855 38.2663 21.9183 38.2028C22.1143 38.0059 22.3096 37.8085 22.505 37.611C22.6378 37.4773 22.7707 37.3437 22.9036 37.2101C23.2292 36.8828 23.5543 36.5549 23.879 36.2267C23.806 36.1374 23.7324 36.0487 23.6586 35.9601C23.6176 35.9106 23.5767 35.8612 23.5346 35.8102C23.3551 35.6111 23.3551 35.6111 22.9767 35.3244Z"/>
</mask>
<path d="M3.67706 0.931357C3.7305 0.930985 3.78394 0.930613 3.839 0.93023C4.01694 0.929197 4.19487 0.929326 4.37281 0.929462C4.50086 0.92897 4.62891 0.928412 4.75696 0.927792C5.10409 0.926345 5.4512 0.925958 5.79833 0.925853C6.01548 0.925737 6.23262 0.925386 6.44977 0.924951C7.20811 0.923434 7.96645 0.922764 8.7248 0.922893C9.43037 0.922991 10.1359 0.921261 10.8415 0.918669C11.4483 0.91652 12.0551 0.915644 12.6619 0.915749C13.0239 0.91579 13.3858 0.915329 13.7477 0.913587C14.0884 0.911991 14.4291 0.91199 14.7698 0.913179C14.8944 0.91335 15.0189 0.912968 15.1434 0.911972C16.05 0.90519 16.8313 0.991553 17.519 1.6339C18.117 2.29902 18.2437 2.95976 18.2349 3.83144C18.2347 3.91814 18.2344 4.00484 18.2342 4.09417C18.2333 4.36997 18.2312 4.64576 18.2291 4.92156C18.2283 5.10901 18.2276 5.29646 18.2269 5.48392C18.2251 5.94247 18.2223 6.401 18.2189 6.85954C18.2881 6.85845 18.2881 6.85845 18.3588 6.85734C18.8405 6.85006 19.3223 6.84512 19.804 6.84152C19.9837 6.83987 20.1633 6.83763 20.343 6.83479C20.6016 6.8308 20.8602 6.82895 21.1188 6.8275C21.1988 6.82581 21.2788 6.82411 21.3612 6.82237C21.8317 6.82221 22.1216 6.85758 22.4845 7.18767C22.8572 7.60539 22.8609 7.96694 22.8562 8.50017C22.8565 8.57842 22.8568 8.65667 22.8572 8.73729C22.8574 8.90221 22.8568 9.06713 22.8554 9.23204C22.8536 9.48376 22.8554 9.73528 22.8575 9.98699C22.8573 10.1476 22.8568 10.3083 22.8562 10.4689C22.8569 10.5438 22.8575 10.6187 22.8582 10.6958C22.8515 11.1515 22.7997 11.4281 22.4845 11.7814C22.0182 12.2079 21.5352 12.1539 20.9274 12.1468C20.8201 12.1468 20.7128 12.1469 20.6023 12.1469C20.3091 12.147 20.0159 12.1451 19.7228 12.1428C19.416 12.1408 19.1092 12.1406 18.8025 12.1402C18.222 12.1392 17.6416 12.1365 17.0611 12.1332C16.4001 12.1295 15.7391 12.1277 15.0781 12.1261C13.7188 12.1226 12.3594 12.1169 11.0001 12.1095C11.1078 11.8279 11.2072 11.628 11.4106 11.4049C12.2696 10.379 12.3364 9.49947 12.3001 8.21146C12.2963 7.86848 12.3041 7.69906 12.4456 7.38153C12.8706 6.9593 13.1737 6.82217 13.764 6.82237C13.884 6.82491 13.884 6.82491 14.0064 6.8275C14.0895 6.82796 14.1726 6.82843 14.2581 6.82891C14.5223 6.83074 14.7863 6.83485 15.0504 6.83904C15.23 6.84068 15.4095 6.84218 15.5891 6.84352C16.0282 6.84685 16.4672 6.85327 16.9064 6.85954C16.9064 6.20986 16.9064 5.56017 16.9064 4.89079C12.142 4.89079 7.37762 4.89079 2.46887 4.89079C2.46887 12.2539 2.46887 19.617 2.46887 27.2033C2.902 27.2033 3.33512 27.2033 3.78137 27.2033C3.77756 27.0134 3.77376 26.8235 3.76983 26.6278C3.76726 26.4404 3.76528 26.2531 3.76335 26.0658C3.76171 25.9372 3.75949 25.8086 3.75662 25.6801C3.727 24.3177 4.00678 23.3244 4.95544 22.3019C5.82405 21.4799 6.80454 21.2678 7.96496 21.215C7.91431 21.193 7.86366 21.171 7.81148 21.1484C6.94866 20.7491 6.31622 20.2022 5.91418 19.3283C5.61823 18.4791 5.6065 17.4008 5.96994 16.571C6.42907 15.741 7.11037 15.0854 8.0236 14.7887C9.00625 14.5912 10.0085 14.6489 10.8703 15.1864C11.5925 15.7065 12.1352 16.3944 12.3126 17.2775C12.4224 18.2961 12.3352 19.1961 11.723 20.0461C11.2741 20.5825 10.7557 20.977 10.0978 21.215C10.1633 21.2171 10.2289 21.2192 10.2964 21.2214C11.553 21.2863 12.5405 21.6935 13.4124 22.6147C14.2345 23.6142 14.3174 24.6155 14.2968 25.86C14.2955 25.9907 14.2944 26.1213 14.2934 26.2519C14.2909 26.5691 14.2861 26.8861 14.2814 27.2033C15.1476 27.2033 16.0139 27.2033 16.9064 27.2033C16.9064 25.552 16.9064 23.9007 16.9064 22.1994C17.2718 22.3212 17.2718 22.3212 17.6447 22.4455C17.8353 22.4777 18.0266 22.5071 18.2189 22.5275C18.2155 22.5743 18.2122 22.6211 18.2087 22.6693C17.9464 24.7939 17.9464 24.7939 18.4795 26.7536C18.9271 27.1628 19.4512 27.3586 20.0252 27.5324C20.3667 27.6456 20.644 27.825 20.9413 28.0236C21.1832 28.1853 21.1832 28.1853 21.4181 28.2697C21.7429 28.1664 22.0327 28.0001 22.3297 27.8349C22.3768 27.8088 22.4238 27.7827 22.4722 27.7558C22.5714 27.7006 22.6704 27.6454 22.7694 27.5901C22.9188 27.5066 23.0685 27.4236 23.2181 27.3406C23.4941 27.187 23.7697 27.0333 24.0431 26.8752C24.1013 26.8491 24.1595 26.8229 24.2195 26.796C24.4099 26.7011 24.55 26.617 24.6993 26.465C24.7943 26.1709 24.7873 25.8885 24.7814 25.5816C24.7827 25.4541 24.7827 25.4541 24.7841 25.324C24.7862 25.0531 24.7839 24.7825 24.7814 24.5116C24.782 24.3278 24.783 24.1439 24.7843 23.96C24.7867 23.5098 24.7851 23.0598 24.7814 22.6095C25.2145 22.6095 25.6476 22.6095 26.0939 22.6095C26.0939 24.1255 26.0939 25.6414 26.0939 27.2033C26.9601 27.2033 27.8264 27.2033 28.7189 27.2033C28.7151 27.0134 28.7113 26.8235 28.7073 26.6278C28.7048 26.4404 28.7028 26.2531 28.7008 26.0658C28.6992 25.9372 28.697 25.8086 28.6941 25.6801C28.6645 24.3177 28.9443 23.3244 29.8929 22.3019C30.564 21.6668 31.385 21.2787 32.3132 21.2913C32.3932 21.2921 32.4732 21.2929 32.5556 21.2938C32.6159 21.2949 32.6763 21.2959 32.7384 21.297C32.9023 21.7028 33.0659 22.1087 33.2291 22.5147C33.2847 22.6529 33.3404 22.791 33.3962 22.9291C33.4763 23.1273 33.556 23.3257 33.6356 23.5241C33.6607 23.586 33.6859 23.648 33.7117 23.7118C33.8868 24.1495 33.8868 24.1495 33.8868 24.3322C33.941 24.3322 33.9951 24.3322 34.0509 24.3322C34.0633 24.2864 34.0756 24.2407 34.0883 24.1935C34.2678 23.5608 34.5117 22.9601 34.7635 22.3532C34.8059 22.2502 34.8483 22.1473 34.8906 22.0443C34.9932 21.7951 35.0961 21.546 35.1993 21.297C36.4364 21.2661 37.3047 21.6275 38.214 22.4711C39.1564 23.4669 39.2559 24.5543 39.2343 25.86C39.233 25.9907 39.2319 26.1213 39.2309 26.2519C39.2284 26.5691 39.2236 26.8861 39.2189 27.2033C39.652 27.2033 40.0851 27.2033 40.5314 27.2033C40.5314 19.8402 40.5314 12.477 40.5314 4.89079C35.767 4.89079 31.0026 4.89079 26.0939 4.89079C26.0939 6.40673 26.0939 7.92267 26.0939 9.48454C26.2563 9.48454 26.4187 9.48454 26.5861 9.48454C26.9818 9.69035 27.1997 9.91134 27.4064 10.3049C27.4487 10.591 27.4401 10.8719 27.4316 11.1604C27.4305 11.2456 27.4294 11.3308 27.4282 11.4185C27.4257 11.6033 27.4225 11.7881 27.4186 11.9728C27.413 12.267 27.4103 12.561 27.4084 12.8552C27.4029 13.6915 27.3958 14.5278 27.3786 15.364C27.3682 15.8762 27.3641 16.3883 27.3637 16.9007C27.3625 17.0943 27.359 17.2879 27.3531 17.4814C27.3094 18.9628 27.6594 19.8391 28.6079 20.9825C28.7189 21.133 28.7189 21.133 28.7189 21.297C27.2942 21.3047 25.8695 21.3105 24.4448 21.314C23.7832 21.3157 23.1217 21.318 22.4602 21.3218C21.8835 21.3251 21.3069 21.3272 20.7303 21.3279C20.425 21.3283 20.1197 21.3293 19.8144 21.3317C19.4735 21.3344 19.1326 21.3344 18.7916 21.3343C18.6906 21.3355 18.5896 21.3367 18.4855 21.3379C17.6135 21.3336 17.6135 21.3336 17.2345 20.9689C16.8922 20.573 16.8599 20.2727 16.8691 19.7733C16.8691 19.7044 16.869 19.6355 16.869 19.5645C16.8692 19.3381 16.8718 19.1118 16.8743 18.8855C16.8749 18.728 16.8754 18.5705 16.8757 18.4131C16.877 17.9996 16.8802 17.5861 16.8838 17.1726C16.8872 16.7503 16.8887 16.328 16.8904 15.9057C16.8939 15.0778 16.8995 14.2499 16.9064 13.422C16.9619 13.4214 17.0175 13.4207 17.0747 13.42C17.6563 13.4129 18.2379 13.4048 18.8195 13.396C19.0361 13.3929 19.2527 13.39 19.4694 13.3874C19.782 13.3837 20.0945 13.3789 20.4071 13.374C20.5509 13.3726 20.5509 13.3726 20.6975 13.3711C21.6971 13.3534 22.6407 13.2782 23.3747 12.5287C23.8978 11.8741 24.0029 11.201 24.0585 10.3869C24.0685 10.2563 24.0685 10.2563 24.0788 10.1232C24.0951 9.91034 24.1105 9.69749 24.1251 9.48454C24.3417 9.48454 24.5582 9.48454 24.7814 9.48454C24.7806 9.40415 24.7799 9.32376 24.7792 9.24093C24.7725 8.48066 24.7676 7.7204 24.7644 6.96011C24.7627 6.56931 24.7604 6.17852 24.7566 5.78773C24.753 5.41009 24.7511 5.03247 24.7502 4.65482C24.7496 4.51125 24.7485 4.36768 24.7467 4.22412C24.7351 3.25319 24.7648 2.39961 25.462 1.65312C25.9997 1.16967 26.5766 0.93345 27.3021 0.931357C27.3555 0.930985 27.4089 0.930613 27.464 0.93023C27.6419 0.929197 27.8199 0.929326 27.9978 0.929462C28.1259 0.92897 28.2539 0.928412 28.382 0.927792C28.7291 0.926345 29.0762 0.925958 29.4233 0.925853C29.6405 0.925737 29.8576 0.925386 30.0748 0.924951C30.8331 0.923434 31.5915 0.922764 32.3498 0.922893C33.0554 0.922991 33.7609 0.921261 34.4665 0.918669C35.0733 0.91652 35.6801 0.915644 36.2869 0.915749C36.6489 0.91579 37.0108 0.915329 37.3727 0.913587C37.7134 0.911991 38.0541 0.91199 38.3948 0.913179C38.5194 0.91335 38.6439 0.912968 38.7684 0.911972C39.675 0.90519 40.4563 0.991553 41.144 1.6339C41.5977 2.13843 41.864 2.70535 41.865 3.39027C41.8655 3.48218 41.866 3.5741 41.8666 3.6688C41.8662 3.81901 41.8662 3.81901 41.8658 3.97226C41.8662 4.0793 41.8666 4.18633 41.8669 4.29661C41.8679 4.59321 41.8679 4.8898 41.8677 5.1864C41.8677 5.50648 41.8686 5.82656 41.8694 6.14665C41.8707 6.77359 41.8712 7.40052 41.8713 8.02746C41.8714 8.53717 41.8717 9.04687 41.8722 9.55658C41.8737 11.0021 41.8744 12.4477 41.8743 13.8932C41.8743 13.9711 41.8743 14.049 41.8743 14.1293C41.8743 14.2073 41.8743 14.2853 41.8743 14.3657C41.8742 15.6297 41.8758 16.8938 41.8781 18.1578C41.8804 19.4561 41.8816 20.7544 41.8814 22.0528C41.8814 22.7815 41.8818 23.5102 41.8836 24.239C41.8851 24.8595 41.8854 25.48 41.8843 26.1005C41.8838 26.4169 41.8838 26.7333 41.8852 27.0498C41.8867 27.3933 41.8857 27.7367 41.8844 28.0802C41.8853 28.1796 41.8861 28.279 41.887 28.3814C41.8805 29.1752 41.7162 29.8489 41.1633 30.441C40.6255 30.9244 40.0487 31.1606 39.3232 31.1627C39.2697 31.1631 39.2163 31.1635 39.1612 31.1639C38.9833 31.1649 38.8054 31.1648 38.6274 31.1646C38.4994 31.1651 38.3713 31.1657 38.2433 31.1663C37.8962 31.1677 37.549 31.1681 37.2019 31.1682C36.9848 31.1684 36.7676 31.1687 36.5505 31.1691C35.7921 31.1707 35.0338 31.1713 34.2754 31.1712C33.5699 31.1711 32.8643 31.1728 32.1588 31.1754C31.552 31.1776 30.9452 31.1784 30.3383 31.1783C29.9764 31.1783 29.6145 31.1788 29.2525 31.1805C28.9118 31.1821 28.5711 31.1821 28.2304 31.1809C28.1059 31.1807 27.9814 31.1811 27.8568 31.1821C26.9503 31.1889 26.169 31.1025 25.4812 30.4602C25.0012 29.9263 24.7921 29.3739 24.7365 28.6632C24.7259 28.5298 24.7259 28.5298 24.7151 28.3936C24.7099 28.3257 24.7047 28.2577 24.6993 28.1877C24.3797 28.3739 24.0602 28.5602 23.7406 28.7465C23.6501 28.7992 23.5597 28.8519 23.4665 28.9062C23.379 28.9573 23.2915 29.0083 23.2013 29.0609C23.121 29.1077 23.0406 29.1545 22.9579 29.2027C22.8061 29.2918 22.6556 29.383 22.5063 29.4764C22.3204 29.5822 22.3204 29.5822 22.1564 29.5822C22.1564 30.5297 22.1564 31.4771 22.1564 32.4533C22.4271 32.5074 22.6978 32.5616 22.9767 32.6174C23.2108 32.7133 23.426 32.8083 23.6483 32.925C23.7053 32.9544 23.7622 32.9839 23.8209 33.0143C24.8939 33.5834 25.6037 34.5467 25.9769 35.6999C26.1071 36.1442 26.1381 36.5602 26.1349 37.0214C26.1344 37.0999 26.1339 37.1784 26.1335 37.2593C26.107 38.3226 25.7852 39.1687 25.1095 40.0002C25.0584 40.0684 25.0073 40.1366 24.9547 40.2069C24.2914 40.9855 23.2001 41.5499 22.1827 41.6658C21.958 41.6766 21.7353 41.6792 21.5104 41.6767C21.3916 41.6758 21.3916 41.6758 21.2704 41.6748C20.6692 41.6609 20.1588 41.578 19.6134 41.3127C19.5345 41.275 19.4556 41.2374 19.3744 41.1986C18.2285 40.6118 17.4908 39.7284 17.0602 38.5082C16.7012 37.3544 16.7887 35.999 17.3165 34.9142C17.4889 34.6226 17.6773 34.3566 17.8907 34.0939C17.9421 34.0256 17.9935 33.9573 18.0465 33.8869C18.7719 33.032 19.7805 32.666 20.8439 32.4533C20.8439 31.5058 20.8439 30.5584 20.8439 29.5822C20.7085 29.5281 20.5732 29.4739 20.4337 29.4181C20.2634 29.3257 20.0946 29.2303 19.9271 29.133C19.857 29.0923 19.857 29.0923 19.7854 29.0509C19.6374 28.9651 19.4895 28.8789 19.3417 28.7927C19.2408 28.7341 19.1399 28.6756 19.039 28.6171C18.7928 28.4742 18.5468 28.331 18.3009 28.1877C18.2966 28.2537 18.2923 28.3197 18.2878 28.3877C18.2815 28.4751 18.2751 28.5625 18.2685 28.6526C18.2625 28.7389 18.2565 28.8252 18.2503 28.9142C18.1707 29.5665 17.8873 30.1272 17.3986 30.5666C16.8691 30.9647 16.3674 31.1608 15.6982 31.1627C15.6447 31.1631 15.5913 31.1635 15.5362 31.1639C15.3583 31.1649 15.1804 31.1648 15.0024 31.1646C14.8744 31.1651 14.7463 31.1657 14.6183 31.1663C14.2712 31.1677 13.924 31.1681 13.5769 31.1682C13.3598 31.1684 13.1426 31.1687 12.9255 31.1691C12.1671 31.1707 11.4088 31.1713 10.6504 31.1712C9.94488 31.1711 9.23932 31.1728 8.53376 31.1754C7.92695 31.1776 7.32015 31.1784 6.71334 31.1783C6.35139 31.1783 5.98945 31.1788 5.62751 31.1805C5.2868 31.1821 4.94613 31.1821 4.60542 31.1809C4.48089 31.1807 4.35636 31.1811 4.23183 31.1821C3.32526 31.1889 2.54396 31.1025 1.8562 30.4602C1.40258 29.9557 1.13627 29.3887 1.13527 28.7038C1.13474 28.6119 1.13421 28.52 1.13366 28.4253C1.13392 28.3251 1.13417 28.225 1.13443 28.1218C1.13406 28.0148 1.13369 27.9078 1.13331 27.7975C1.1323 27.5009 1.13232 27.2043 1.13252 26.9077C1.13255 26.5876 1.13165 26.2675 1.13087 25.9474C1.12951 25.3205 1.12905 24.6936 1.12896 24.0666C1.12889 23.5569 1.12855 23.0472 1.12803 22.5375C1.12658 21.092 1.12583 19.6464 1.12595 18.2009C1.12596 18.123 1.12596 18.045 1.12597 17.9648C1.12598 17.8868 1.12598 17.8087 1.12599 17.7284C1.12606 16.4643 1.12449 15.2003 1.12217 13.9363C1.11982 12.638 1.11868 11.3397 1.11883 10.0413C1.11888 9.31259 1.11843 8.58386 1.11666 7.85512C1.11517 7.23461 1.11481 6.61411 1.11593 5.99359C1.11646 5.67715 1.11647 5.36074 1.11505 5.04431C1.11352 4.70083 1.11454 4.35741 1.11581 4.01393C1.11496 3.91452 1.11412 3.81511 1.11325 3.71268C1.11971 2.91891 1.284 2.24519 1.83697 1.65312C2.37469 1.16967 2.95157 0.93345 3.67706 0.931357ZM14.2814 8.82829C14.2814 9.26142 14.2814 9.69454 14.2814 10.1408C16.447 10.1408 18.6126 10.1408 20.8439 10.1408C20.8439 9.70767 20.8439 9.27454 20.8439 8.82829C18.6782 8.82829 16.5126 8.82829 14.2814 8.82829ZM18.8751 15.3908C18.8751 15.8239 18.8751 16.257 18.8751 16.7033C21.0407 16.7033 23.2064 16.7033 25.4376 16.7033C25.4376 16.2702 25.4376 15.837 25.4376 15.3908C23.272 15.3908 21.1064 15.3908 18.8751 15.3908ZM18.8751 18.0158C18.8751 18.4489 18.8751 18.882 18.8751 19.3283C21.0407 19.3283 23.2064 19.3283 25.4376 19.3283C25.4376 18.8952 25.4376 18.462 25.4376 18.0158C23.272 18.0158 21.1064 18.0158 18.8751 18.0158ZM8.37512 23.2658C8.37512 23.6989 8.37512 24.132 8.37512 24.5783C8.80825 24.5783 9.24137 24.5783 9.68762 24.5783C9.68762 24.1452 9.68762 23.712 9.68762 23.2658C9.2545 23.2658 8.82137 23.2658 8.37512 23.2658ZM22.9767 35.3244C22.2999 36.0011 21.6232 36.6779 20.9259 37.3752C20.6393 37.2319 20.5043 37.1361 20.2902 36.9137C20.2398 36.8619 20.1895 36.8101 20.1376 36.7567C20.1 36.7172 20.0623 36.6776 20.0236 36.6369C19.9343 36.7099 19.8455 36.7835 19.757 36.8573C19.7075 36.8983 19.658 36.9392 19.607 36.9814C19.408 37.1608 19.408 37.1608 19.1212 37.5392C19.6626 38.0806 20.204 38.622 20.7618 39.1799C21.0414 39.0401 21.1724 38.9535 21.3832 38.7411C21.4391 38.6853 21.4949 38.6295 21.5524 38.572C21.6117 38.5118 21.671 38.4516 21.7321 38.3897C21.7936 38.328 21.855 38.2663 21.9183 38.2028C22.1143 38.0059 22.3096 37.8085 22.505 37.611C22.6378 37.4773 22.7707 37.3437 22.9036 37.2101C23.2292 36.8828 23.5543 36.5549 23.879 36.2267C23.806 36.1374 23.7324 36.0487 23.6586 35.9601C23.6176 35.9106 23.5767 35.8612 23.5346 35.8102C23.3551 35.6111 23.3551 35.6111 22.9767 35.3244Z" stroke="white" stroke-width="2" mask="url(#path-1-inside-1_5293_2252)"/>
<path d="M31.9435 15.9902C32.9097 15.075 34.396 14.9034 35.5304 15.6025C36.1652 16.0638 36.6054 16.642 36.755 17.3545C36.8531 18.2912 36.7626 19.0367 36.2657 19.7363C35.7566 20.3366 35.1899 20.738 34.4942 20.8164C33.5125 20.8835 32.7844 20.7606 32.0919 20.1816C31.4809 19.5941 31.1808 19.0048 31.1485 18.1895C31.1393 17.2752 31.3392 16.6271 31.9435 15.9902Z" stroke="white"/>
</g>
<defs>
<clipPath id="clip0_5293_2252">
<rect width="42" height="42" fill="white" transform="translate(0.500122 0.296875)"/>
</clipPath>
</defs>
</svg>
